<svg id="svg" version="1.1" xmlns="http://www.w3.org/2000/svg" xmlns:xlink="http://www.w3.org/1999/xlink" width="400" height="50.526315789473685" viewBox="0, 0, 400,50.526315789473685"><g id="svgg"><path id="path0" d="M8.591 0.720 C 8.091 0.886,7.988 1.186,7.929 2.646 L 7.884 3.783 8.400 3.516 C 9.029 3.192,46.250 3.033,47.333 3.349 C 47.654 3.443,48.892 3.589,50.083 3.674 C 51.275 3.758,53.525 3.934,55.083 4.064 C 57.204 4.241,58.465 4.260,60.095 4.141 C 61.891 4.009,98.045 4.064,106.250 4.210 C 107.350 4.230,114.400 4.179,121.917 4.096 C 138.567 3.914,334.326 3.867,355.750 4.041 C 373.924 4.188,377.522 4.278,378.331 4.611 C 379.756 5.196,386.059 5.394,394.167 5.109 C 396.890 5.013,398.900 5.204,399.346 5.600 C 399.920 6.109,400.000 5.894,400.000 3.833 C 400.000 2.733,399.981 1.817,399.958 1.797 C 399.935 1.778,394.228 1.721,387.276 1.672 L 374.635 1.583 374.236 1.083 L 373.838 0.583 191.419 0.583 C 91.089 0.583,8.816 0.645,8.591 0.720 M6.750 4.833 C 6.608 5.108,6.529 5.333,6.575 5.333 C 6.621 5.333,6.774 5.108,6.917 4.833 C 7.059 4.558,7.138 4.333,7.092 4.333 C 7.046 4.333,6.892 4.558,6.750 4.833 M5.118 7.500 C 5.061 7.821,5.027 8.421,5.043 8.833 C 5.059 9.246,5.016 9.790,4.949 10.042 C 4.814 10.549,4.930 10.606,5.390 10.257 C 5.665 10.049,5.674 9.962,5.481 9.426 C 5.293 8.907,5.302 8.765,5.549 8.347 C 5.913 7.730,5.951 6.747,5.593 7.220 C 5.370 7.514,5.360 7.514,5.292 7.220 C 5.247 7.026,5.184 7.128,5.118 7.500 M4.073 13.570 C 4.131 13.746,4.090 13.944,3.983 14.010 C 3.857 14.088,3.832 14.300,3.913 14.607 C 4.032 15.063,4.046 15.049,4.254 14.250 C 4.373 13.792,4.440 13.385,4.402 13.347 C 4.364 13.309,4.332 13.384,4.331 13.514 C 4.329 13.709,4.297 13.707,4.148 13.500 C 4.001 13.295,3.987 13.308,4.073 13.570 M3.933 16.125 C 3.996 16.469,4.107 16.900,4.180 17.083 L 4.312 17.417 4.325 17.083 C 4.336 16.806,4.366 16.792,4.500 17.000 C 4.623 17.190,4.662 17.119,4.664 16.708 C 4.666 16.410,4.597 16.167,4.511 16.167 C 4.426 16.167,4.308 16.017,4.250 15.833 C 4.061 15.237,3.812 15.466,3.933 16.125 M3.333 23.990 C 3.333 24.087,3.249 24.148,3.145 24.125 C 3.042 24.102,2.941 24.263,2.921 24.483 C 2.888 24.856,2.900 24.862,3.109 24.576 C 3.233 24.408,3.416 24.218,3.518 24.156 C 3.653 24.072,3.653 24.011,3.518 23.928 C 3.416 23.865,3.333 23.893,3.333 23.990 M399.407 29.750 C 399.407 32.317,399.430 33.343,399.458 32.032 C 399.486 30.720,399.486 28.620,399.458 27.365 C 399.430 26.110,399.407 27.183,399.407 29.750 M1.908 26.745 C 1.655 27.349,1.604 27.667,1.758 27.667 C 1.958 27.667,2.656 26.732,2.661 26.458 C 2.671 25.949,2.159 26.144,1.908 26.745 M0.723 31.134 L 0.696 31.917 0.832 31.250 C 0.907 30.883,0.919 30.531,0.859 30.467 C 0.799 30.403,0.738 30.703,0.723 31.134 M0.924 34.844 C 0.984 34.942,1.075 34.980,1.126 34.929 C 1.177 34.878,1.320 34.920,1.443 35.022 C 1.584 35.139,1.667 35.145,1.667 35.038 C 1.667 34.945,1.548 34.823,1.403 34.768 C 1.003 34.614,0.801 34.646,0.924 34.844 M399.404 38.500 C 399.404 40.471,399.428 41.277,399.458 40.292 C 399.487 39.306,399.487 37.694,399.458 36.708 C 399.428 35.723,399.404 36.529,399.404 38.500 M1.932 36.476 C 1.823 36.652,2.255 37.167,2.512 37.167 C 2.764 37.167,2.689 36.906,2.350 36.598 C 2.162 36.429,1.992 36.379,1.932 36.476 M2.836 37.458 C 2.841 37.688,3.079 37.948,3.478 38.158 C 3.805 38.330,3.851 38.328,3.745 38.142 C 3.395 37.531,2.829 37.105,2.836 37.458 M5.081 38.503 C 4.942 38.729,5.215 39.046,5.596 39.102 C 5.824 39.136,5.819 39.090,5.558 38.779 C 5.390 38.580,5.242 38.393,5.227 38.364 C 5.212 38.335,5.147 38.398,5.081 38.503 M399.189 43.186 C 399.177 43.334,399.008 43.657,398.814 43.903 C 398.621 44.149,398.506 44.395,398.560 44.449 C 398.696 44.585,399.183 44.161,399.080 43.995 C 399.035 43.922,399.081 43.834,399.182 43.800 C 399.283 43.767,399.331 43.554,399.289 43.328 C 399.247 43.102,399.202 43.038,399.189 43.186 M26.051 45.624 C 27.041 45.654,28.616 45.654,29.551 45.624 C 30.485 45.595,29.675 45.570,27.750 45.571 C 25.825 45.571,25.060 45.595,26.051 45.624 M34.288 45.787 C 34.584 45.824,35.109 45.824,35.455 45.788 C 35.800 45.752,35.558 45.722,34.917 45.721 C 34.275 45.721,33.992 45.750,34.288 45.787 M397.065 46.750 C 396.451 47.346,396.040 47.833,396.152 47.833 C 396.344 47.833,398.333 45.935,398.333 45.752 C 398.333 45.556,398.125 45.720,397.065 46.750 M38.833 45.967 C 38.833 46.168,39.207 46.500,39.434 46.500 C 39.553 46.500,39.600 46.364,39.548 46.167 C 39.466 45.854,38.833 45.677,38.833 45.967 M7.226 46.417 C 7.364 46.554,7.571 46.667,7.687 46.667 C 7.805 46.667,7.755 46.559,7.574 46.422 C 7.149 46.101,6.907 46.097,7.226 46.417 M21.074 46.326 C 20.986 46.414,20.278 46.511,19.499 46.542 L 18.083 46.599 19.625 46.633 C 20.620 46.655,21.167 46.604,21.167 46.490 C 21.167 46.393,21.253 46.367,21.359 46.433 C 21.478 46.506,21.506 46.478,21.433 46.359 C 21.289 46.126,21.275 46.125,21.074 46.326 M40.993 47.153 C 41.154 47.455,41.419 47.548,42.708 47.753 C 43.228 47.836,43.223 47.828,42.583 47.557 C 42.217 47.401,41.857 47.175,41.783 47.054 C 41.552 46.671,40.786 46.767,40.993 47.153 M292.073 47.016 C 292.011 47.117,291.725 47.302,291.438 47.427 L 290.917 47.654 291.417 47.658 C 291.989 47.662,292.691 47.348,292.792 47.042 C 292.878 46.783,292.231 46.760,292.073 47.016 M8.000 47.167 C 8.000 47.258,8.079 47.333,8.177 47.333 C 8.274 47.333,8.307 47.408,8.250 47.500 C 8.193 47.592,8.220 47.667,8.310 47.667 C 8.399 47.667,8.610 47.716,8.778 47.777 C 8.985 47.852,8.933 47.745,8.616 47.444 C 8.108 46.961,8.000 46.912,8.000 47.167 M300.916 47.335 C 300.859 47.426,300.837 47.506,300.865 47.513 C 300.893 47.520,301.029 47.550,301.167 47.580 C 301.304 47.610,301.567 47.691,301.750 47.760 C 302.147 47.910,302.074 47.831,301.467 47.451 C 301.192 47.280,300.978 47.234,300.916 47.335 M263.000 47.493 C 262.582 47.573,262.785 47.608,263.718 47.617 C 264.433 47.624,264.996 47.611,264.968 47.588 C 264.813 47.461,263.500 47.398,263.000 47.493 M260.875 47.782 C 261.035 47.823,261.298 47.823,261.458 47.782 C 261.619 47.740,261.487 47.705,261.167 47.705 C 260.846 47.705,260.715 47.740,260.875 47.782 M265.544 47.786 C 265.797 47.825,266.172 47.824,266.377 47.784 C 266.582 47.744,266.375 47.713,265.917 47.714 C 265.458 47.716,265.291 47.748,265.544 47.786 M268.127 47.785 C 268.334 47.824,268.634 47.823,268.794 47.781 C 268.953 47.739,268.783 47.707,268.417 47.709 C 268.050 47.711,267.920 47.745,268.127 47.785 M271.294 47.785 C 271.501 47.824,271.801 47.823,271.960 47.781 C 272.120 47.739,271.950 47.707,271.583 47.709 C 271.217 47.711,271.086 47.745,271.294 47.785 M274.621 47.787 C 274.917 47.824,275.442 47.824,275.788 47.788 C 276.134 47.752,275.892 47.722,275.250 47.721 C 274.608 47.721,274.325 47.750,274.621 47.787 M9.333 48.079 C 9.333 48.289,10.115 48.833,10.418 48.833 C 10.473 48.833,10.386 48.608,10.223 48.333 C 9.917 47.815,9.333 47.648,9.333 48.079 M15.717 48.072 C 15.643 48.203,15.358 48.427,15.083 48.571 C 14.533 48.858,14.736 48.925,15.396 48.675 C 15.822 48.512,16.322 47.833,16.014 47.833 C 15.924 47.833,15.790 47.941,15.717 48.072 M69.333 48.079 C 69.333 48.403,70.258 48.873,70.720 48.783 C 71.069 48.715,71.069 48.711,70.736 48.689 C 70.546 48.677,70.289 48.479,70.167 48.250 C 69.926 47.800,69.333 47.678,69.333 48.079 M304.000 47.996 C 304.000 48.259,304.697 48.621,305.417 48.732 L 306.083 48.835 305.469 48.502 C 305.131 48.320,304.808 48.094,304.751 48.002 C 304.618 47.786,304.000 47.781,304.000 47.996 M394.579 48.174 C 394.398 48.375,394.100 48.607,393.917 48.690 C 393.662 48.805,393.702 48.818,394.083 48.743 C 394.658 48.630,395.069 48.289,394.973 48.004 C 394.933 47.882,394.784 47.946,394.579 48.174 M256.500 48.601 C 256.222 48.771,256.194 48.818,256.417 48.742 C 256.600 48.679,256.840 48.623,256.951 48.619 C 257.062 48.615,257.113 48.549,257.066 48.472 C 256.961 48.302,257.002 48.293,256.500 48.601 M104.305 48.792 C 119.369 48.815,143.969 48.815,158.972 48.792 C 173.975 48.768,161.650 48.749,131.583 48.749 C 101.517 48.749,89.241 48.768,104.305 48.792 M245.042 48.958 C 246.669 48.985,249.331 48.985,250.958 48.958 C 252.585 48.931,251.254 48.908,248.000 48.908 C 244.746 48.908,243.415 48.931,245.042 48.958 M310.292 48.958 C 311.231 48.987,312.769 48.987,313.708 48.958 C 314.648 48.928,313.879 48.904,312.000 48.904 C 310.121 48.904,309.352 48.928,310.292 48.958 M388.792 48.957 C 389.365 48.989,390.302 48.989,390.875 48.957 C 391.448 48.924,390.979 48.898,389.833 48.898 C 388.688 48.898,388.219 48.924,388.792 48.957 M200.833 49.167 C 201.041 49.301,201.027 49.330,200.750 49.341 C 200.464 49.353,200.475 49.378,200.830 49.519 C 201.057 49.610,202.194 49.661,203.356 49.634 C 204.518 49.606,205.434 49.640,205.391 49.708 C 205.349 49.777,205.506 49.833,205.740 49.833 C 205.975 49.833,206.167 49.776,206.167 49.706 C 206.167 49.636,206.785 49.630,207.542 49.692 C 209.587 49.863,210.667 49.854,210.667 49.667 C 210.667 49.575,210.233 49.500,209.699 49.500 C 209.105 49.500,208.605 49.405,208.407 49.255 C 207.980 48.932,207.014 48.936,206.359 49.262 C 205.881 49.501,205.786 49.501,205.308 49.262 C 204.701 48.959,200.369 48.867,200.833 49.167 M239.000 49.161 C 239.000 49.250,238.794 49.435,238.542 49.571 C 238.215 49.749,238.167 49.822,238.375 49.827 C 238.535 49.830,238.817 49.683,239.000 49.500 C 239.371 49.129,239.414 49.000,239.167 49.000 C 239.075 49.000,239.000 49.073,239.000 49.161 M385.651 49.269 C 385.529 49.416,385.276 49.599,385.089 49.675 C 384.760 49.808,384.760 49.813,385.117 49.823 C 385.598 49.837,386.292 49.515,386.402 49.227 C 386.526 48.904,385.927 48.937,385.651 49.269 M317.561 49.536 C 317.497 49.640,317.525 49.671,317.627 49.608 C 317.725 49.547,317.832 49.581,317.866 49.682 C 317.900 49.783,318.113 49.839,318.339 49.805 C 318.732 49.747,318.727 49.736,318.212 49.549 C 317.825 49.408,317.642 49.404,317.561 49.536 M211.294 49.785 C 211.501 49.824,211.801 49.823,211.960 49.781 C 212.120 49.739,211.950 49.707,211.583 49.709 C 211.217 49.711,211.086 49.745,211.294 49.785 M220.375 49.958 C 223.194 49.984,227.806 49.984,230.625 49.958 C 233.444 49.933,231.137 49.912,225.500 49.912 C 219.862 49.912,217.556 49.933,220.375 49.958 M319.375 49.948 C 319.535 49.990,319.798 49.990,319.958 49.948 C 320.119 49.906,319.987 49.872,319.667 49.872 C 319.346 49.872,319.215 49.906,319.375 49.948 M359.500 50.250 C 359.500 50.389,359.648 50.500,359.833 50.500 C 360.019 50.500,360.167 50.389,360.167 50.250 C 360.167 50.111,360.019 50.000,359.833 50.000 C 359.648 50.000,359.500 50.111,359.500 50.250 " stroke="none" fill="#0d1a23" fill-rule="evenodd"></path><path id="path1" d="M8.074 4.078 C 7.896 4.213,7.821 4.325,7.907 4.328 C 8.185 4.337,7.427 4.823,7.125 4.828 C 6.872 4.833,6.747 5.119,6.814 5.542 C 6.824 5.610,6.743 5.648,6.633 5.625 C 6.522 5.602,6.428 5.690,6.424 5.819 C 6.420 5.949,6.329 6.085,6.221 6.121 C 6.097 6.162,6.059 6.061,6.116 5.843 C 6.165 5.654,6.264 5.500,6.335 5.500 C 6.406 5.500,6.508 5.388,6.560 5.250 C 6.796 4.635,6.280 5.078,5.986 5.743 C 5.805 6.152,5.584 6.531,5.495 6.586 C 5.406 6.641,5.333 6.886,5.333 7.130 C 5.333 7.642,5.715 7.254,5.871 6.583 C 5.914 6.400,5.928 7.140,5.903 8.227 C 5.861 10.010,5.820 10.242,5.483 10.601 C 5.278 10.820,5.160 11.049,5.222 11.110 C 5.283 11.172,5.333 11.122,5.333 11.000 C 5.333 10.878,5.373 10.817,5.421 10.865 C 5.654 11.099,5.291 11.506,5.037 11.296 C 4.808 11.108,4.803 11.128,4.988 11.476 C 5.147 11.775,5.151 11.915,5.004 12.060 C 4.897 12.164,4.824 12.175,4.841 12.083 C 4.927 11.633,4.832 11.460,4.604 11.649 C 4.478 11.754,4.337 12.194,4.291 12.628 C 4.245 13.062,4.173 13.529,4.131 13.667 C 4.089 13.804,4.086 13.860,4.125 13.791 C 4.164 13.721,4.263 13.706,4.346 13.758 C 4.428 13.809,4.451 13.733,4.396 13.590 C 4.324 13.401,4.370 13.358,4.565 13.433 C 4.890 13.557,4.918 14.225,4.612 14.531 C 4.490 14.653,4.421 14.846,4.459 14.960 C 4.564 15.275,4.206 15.207,4.013 14.875 C 3.869 14.627,3.843 14.653,3.838 15.053 C 3.834 15.457,3.883 15.507,4.188 15.410 C 4.411 15.339,4.503 15.361,4.436 15.468 C 4.379 15.562,4.423 15.669,4.536 15.706 C 4.666 15.750,4.749 16.166,4.765 16.846 C 4.787 17.851,4.778 17.881,4.606 17.333 L 4.423 16.750 4.368 17.577 C 4.327 18.186,4.405 18.570,4.662 19.027 C 4.994 19.619,5.100 20.915,4.800 20.729 C 4.727 20.684,4.667 20.751,4.667 20.878 C 4.667 21.005,4.479 21.285,4.250 21.500 C 4.021 21.715,3.839 21.972,3.846 22.071 C 3.854 22.169,3.897 22.156,3.944 22.042 C 4.043 21.795,4.833 21.758,4.833 22.000 C 4.833 22.092,4.754 22.167,4.657 22.167 C 4.560 22.167,4.526 22.241,4.582 22.331 C 4.638 22.422,4.521 22.665,4.321 22.873 L 3.959 23.250 4.152 22.875 C 4.369 22.453,4.151 22.367,3.833 22.750 C 3.667 22.950,3.671 23.056,3.855 23.282 C 4.010 23.474,4.017 23.524,3.875 23.439 C 3.675 23.319,3.586 23.598,3.654 24.125 C 3.669 24.240,3.603 24.333,3.507 24.333 C 3.412 24.333,3.352 24.390,3.374 24.458 C 3.396 24.527,3.290 24.759,3.139 24.974 C 2.888 25.330,2.857 25.337,2.785 25.057 C 2.720 24.807,2.702 24.820,2.686 25.125 C 2.673 25.368,2.762 25.500,2.937 25.500 C 3.145 25.500,3.165 25.552,3.020 25.726 C 2.917 25.850,2.789 26.393,2.735 26.934 C 2.668 27.604,2.536 28.005,2.319 28.193 C 2.143 28.346,2.000 28.594,2.000 28.745 C 2.000 28.896,1.926 28.974,1.835 28.918 C 1.745 28.862,1.711 28.921,1.760 29.050 C 1.811 29.181,1.591 29.542,1.258 29.875 C 0.933 30.200,0.669 30.568,0.672 30.692 C 0.675 30.821,0.757 30.774,0.866 30.583 C 1.061 30.238,1.329 30.007,1.536 30.003 C 1.602 30.001,1.641 30.337,1.622 30.750 C 1.592 31.431,1.497 31.578,1.125 31.520 C 1.056 31.509,1.000 31.583,1.000 31.684 C 1.000 31.786,1.116 31.824,1.259 31.770 C 1.401 31.715,1.475 31.738,1.424 31.821 C 1.373 31.904,1.388 32.003,1.457 32.042 C 1.527 32.080,1.485 32.087,1.364 32.057 C 1.214 32.019,1.178 32.107,1.250 32.334 C 1.311 32.525,1.280 32.667,1.178 32.667 C 1.080 32.667,1.000 32.784,1.000 32.927 C 1.000 33.069,1.070 33.143,1.155 33.090 C 1.240 33.038,1.357 33.071,1.415 33.164 C 1.513 33.323,1.278 33.410,0.930 33.344 C 0.846 33.328,0.864 33.419,0.970 33.548 C 1.077 33.676,1.114 33.831,1.052 33.892 C 0.991 33.953,1.086 34.121,1.262 34.264 C 1.439 34.407,1.505 34.487,1.409 34.440 C 1.313 34.393,1.125 34.432,0.992 34.527 C 0.794 34.667,0.802 34.682,1.037 34.606 C 1.390 34.493,1.871 34.942,1.793 35.312 C 1.736 35.580,2.244 36.167,2.534 36.167 C 2.617 36.167,2.762 36.392,2.858 36.667 C 2.956 36.948,3.153 37.168,3.308 37.169 C 3.726 37.173,4.059 37.439,3.962 37.692 C 3.915 37.815,3.847 37.987,3.813 38.073 C 3.778 38.159,4.012 38.243,4.333 38.259 C 4.654 38.275,4.954 38.306,5.000 38.328 C 5.046 38.349,5.327 38.354,5.625 38.337 C 6.055 38.314,6.145 38.362,6.065 38.571 C 6.010 38.715,6.045 38.833,6.144 38.833 C 6.242 38.833,6.280 38.946,6.227 39.083 C 6.174 39.221,6.198 39.333,6.279 39.333 C 6.361 39.333,6.443 39.521,6.462 39.750 C 6.506 40.280,6.052 40.317,5.951 39.792 C 5.911 39.585,5.876 39.942,5.873 40.583 C 5.869 41.268,5.913 41.583,5.980 41.346 C 6.160 40.698,6.513 40.709,6.461 41.360 C 6.409 42.014,6.150 42.400,5.961 42.107 C 5.894 42.002,5.837 42.227,5.836 42.606 C 5.834 43.158,5.891 43.292,6.121 43.273 C 6.279 43.260,6.410 43.362,6.412 43.500 C 6.415 43.637,6.492 43.764,6.583 43.782 C 6.789 43.821,6.961 44.403,6.983 45.132 C 6.994 45.468,7.081 45.671,7.208 45.654 C 7.696 45.591,7.860 45.694,8.025 46.168 C 8.133 46.478,8.352 46.707,8.600 46.769 C 8.860 46.834,9.000 46.989,9.000 47.213 C 9.000 47.401,9.050 47.505,9.111 47.444 C 9.173 47.383,9.345 47.443,9.494 47.578 C 9.643 47.713,10.000 47.841,10.287 47.863 C 10.575 47.885,10.766 47.975,10.711 48.063 C 10.655 48.153,10.727 48.179,10.876 48.122 C 11.033 48.062,11.318 48.185,11.579 48.427 C 11.820 48.650,12.182 48.827,12.384 48.818 C 12.656 48.807,12.612 48.763,12.208 48.647 C 11.612 48.475,11.484 48.238,11.988 48.238 C 12.164 48.238,12.272 48.297,12.228 48.369 C 12.183 48.441,12.301 48.500,12.490 48.500 C 12.679 48.500,12.833 48.575,12.833 48.667 C 12.833 48.758,12.983 48.833,13.167 48.833 C 13.350 48.833,13.481 48.740,13.458 48.625 C 13.431 48.487,13.633 48.417,14.055 48.417 C 14.487 48.417,14.767 48.316,14.922 48.104 C 15.070 47.902,15.274 47.823,15.495 47.880 C 15.727 47.941,15.894 47.864,16.013 47.643 C 16.122 47.439,16.324 47.335,16.550 47.366 C 16.796 47.400,16.913 47.328,16.915 47.142 C 16.918 46.722,17.788 45.835,18.210 45.821 C 21.504 45.712,21.476 45.709,21.319 46.120 C 21.176 46.497,21.181 46.498,21.597 46.226 C 21.922 46.013,21.969 45.914,21.802 45.797 C 21.654 45.694,21.700 45.677,21.944 45.746 C 22.143 45.801,22.355 45.766,22.417 45.667 C 22.478 45.568,22.672 45.532,22.847 45.588 C 23.026 45.644,23.167 45.611,23.167 45.511 C 23.167 45.413,23.284 45.333,23.427 45.333 C 23.569 45.333,23.644 45.265,23.593 45.182 C 23.542 45.099,23.650 45.070,23.833 45.118 C 24.042 45.173,24.167 45.124,24.167 44.986 C 24.167 44.815,24.211 44.811,24.367 44.967 C 24.621 45.221,25.111 45.225,25.266 44.974 C 25.345 44.847,25.311 44.827,25.167 44.917 C 25.030 45.001,24.989 44.986,25.056 44.877 C 25.124 44.767,26.191 44.698,27.921 44.691 C 29.657 44.684,30.641 44.740,30.578 44.842 C 30.523 44.930,30.652 45.072,30.864 45.158 C 31.081 45.244,31.141 45.318,31.000 45.325 C 30.659 45.343,31.132 45.662,31.500 45.662 C 31.721 45.662,31.721 45.643,31.501 45.504 C 31.301 45.378,31.294 45.306,31.464 45.136 C 31.631 44.969,31.743 44.967,32.002 45.129 C 32.397 45.376,32.555 45.391,32.418 45.169 C 32.359 45.074,32.426 45.046,32.575 45.103 C 32.717 45.158,32.834 45.288,32.836 45.393 C 32.837 45.507,32.897 45.491,32.984 45.354 C 33.064 45.227,33.214 45.176,33.317 45.240 C 33.421 45.304,33.455 45.438,33.393 45.538 C 33.316 45.663,33.406 45.676,33.682 45.582 C 34.395 45.339,36.000 45.358,36.000 45.610 C 36.000 45.770,36.261 45.833,36.917 45.833 C 37.421 45.833,37.833 45.758,37.833 45.667 C 37.833 45.575,37.983 45.500,38.167 45.500 C 38.350 45.500,38.500 45.575,38.500 45.667 C 38.500 45.758,38.579 45.833,38.677 45.833 C 38.774 45.833,38.799 45.747,38.734 45.641 C 38.656 45.514,38.689 45.494,38.830 45.581 C 38.949 45.655,39.204 45.722,39.398 45.732 C 39.630 45.744,39.768 45.879,39.804 46.127 C 39.835 46.351,39.932 46.459,40.040 46.392 C 40.154 46.322,40.187 46.373,40.128 46.528 C 40.071 46.675,40.126 46.778,40.259 46.778 C 40.383 46.778,40.447 46.715,40.399 46.639 C 40.352 46.563,40.393 46.500,40.490 46.500 C 40.587 46.500,40.667 46.556,40.667 46.625 C 40.667 46.694,40.910 46.754,41.208 46.759 C 43.130 46.790,43.970 47.130,43.357 47.629 C 43.121 47.821,43.137 47.826,43.469 47.664 C 43.798 47.504,43.823 47.438,43.636 47.211 C 43.440 46.974,43.457 46.967,43.795 47.147 C 44.003 47.258,44.259 47.296,44.363 47.232 C 44.472 47.164,44.506 47.189,44.442 47.292 C 44.369 47.410,44.560 47.438,45.025 47.375 C 45.524 47.309,45.684 47.336,45.599 47.475 C 45.513 47.614,45.855 47.667,46.833 47.667 C 47.585 47.667,48.145 47.601,48.094 47.518 C 48.044 47.436,48.201 47.319,48.444 47.258 C 48.730 47.186,48.932 47.224,49.019 47.364 C 49.126 47.536,49.195 47.538,49.360 47.374 C 49.633 47.101,49.978 47.114,50.563 47.419 C 50.901 47.595,50.990 47.605,50.863 47.453 C 50.730 47.292,50.764 47.186,50.997 47.041 C 51.238 46.890,51.328 46.892,51.392 47.048 C 51.454 47.202,51.477 47.201,51.487 47.042 C 51.494 46.927,51.584 46.833,51.687 46.833 C 51.814 46.833,51.805 46.916,51.660 47.091 C 51.543 47.233,51.336 47.306,51.200 47.254 C 50.989 47.173,50.986 47.199,51.179 47.431 C 51.320 47.602,51.428 47.634,51.466 47.517 C 51.501 47.415,51.602 47.377,51.691 47.432 C 51.962 47.599,52.551 46.972,52.296 46.788 C 52.144 46.679,52.164 46.661,52.369 46.727 C 52.546 46.783,52.768 46.674,52.953 46.439 L 53.251 46.059 53.664 46.446 C 54.090 46.846,54.333 46.936,54.333 46.694 C 54.333 46.618,54.446 46.556,54.583 46.556 C 54.721 46.556,54.833 46.601,54.833 46.657 C 54.833 46.712,57.815 46.762,61.458 46.768 C 68.922 46.780,68.723 46.768,68.609 47.204 C 68.542 47.461,68.570 47.483,68.763 47.322 C 69.036 47.096,69.088 47.345,68.823 47.611 C 68.698 47.736,68.759 47.786,69.031 47.783 C 70.011 47.772,70.461 47.853,70.760 48.096 C 70.938 48.240,70.990 48.311,70.875 48.253 C 70.760 48.194,70.667 48.183,70.667 48.228 C 70.667 48.418,71.733 48.828,71.828 48.675 C 71.883 48.586,72.094 48.556,72.296 48.609 C 72.498 48.661,72.622 48.771,72.572 48.852 C 72.521 48.934,73.056 49.000,73.761 49.000 C 74.888 49.000,75.016 48.970,74.830 48.746 C 74.655 48.535,74.664 48.509,74.880 48.592 C 75.023 48.647,75.292 48.611,75.477 48.512 C 75.722 48.381,75.845 48.384,75.932 48.525 C 76.011 48.653,75.978 48.673,75.833 48.583 C 75.689 48.494,75.655 48.514,75.734 48.641 C 75.875 48.869,76.500 48.599,76.500 48.310 C 76.500 48.211,76.609 48.173,76.742 48.224 C 76.901 48.285,76.952 48.236,76.893 48.081 C 76.752 47.715,94.031 47.717,94.727 48.083 C 95.278 48.372,95.667 48.407,95.667 48.167 C 95.667 47.949,96.782 47.949,96.917 48.167 C 97.051 48.384,97.833 48.384,97.833 48.167 C 97.833 47.936,98.769 47.957,99.152 48.196 C 99.399 48.350,99.578 48.337,100.000 48.133 C 100.528 47.877,101.086 47.901,101.262 48.187 C 101.399 48.407,101.962 48.363,102.042 48.125 C 102.162 47.762,122.329 47.737,123.091 48.098 C 123.618 48.348,123.719 48.350,124.203 48.115 C 124.497 47.973,124.777 47.874,124.827 47.895 C 124.876 47.915,125.128 48.038,125.385 48.167 C 125.756 48.352,125.921 48.359,126.175 48.200 C 126.563 47.958,127.500 47.934,127.500 48.167 C 127.500 48.258,127.688 48.333,127.917 48.333 C 128.146 48.333,128.333 48.258,128.333 48.167 C 128.333 47.937,129.269 47.957,129.650 48.195 C 129.896 48.349,130.084 48.331,130.548 48.111 C 131.390 47.712,150.798 47.687,151.561 48.084 C 152.112 48.372,152.500 48.406,152.500 48.167 C 152.500 47.949,153.616 47.949,153.750 48.167 C 153.884 48.384,154.667 48.384,154.667 48.167 C 154.667 47.936,155.602 47.957,155.985 48.196 C 156.232 48.350,156.412 48.337,156.833 48.133 C 157.361 47.877,157.919 47.901,158.096 48.187 C 158.232 48.407,158.796 48.363,158.875 48.125 C 158.990 47.779,179.184 47.734,179.873 48.078 C 180.439 48.360,181.000 48.414,181.000 48.186 C 181.000 47.908,181.632 47.874,182.147 48.123 C 182.610 48.347,182.722 48.345,183.232 48.103 C 183.974 47.751,185.500 47.734,185.500 48.079 C 185.500 48.263,185.665 48.310,186.167 48.267 C 186.533 48.236,186.833 48.282,186.833 48.369 C 186.833 48.456,186.927 48.495,187.042 48.455 C 187.156 48.415,187.230 48.240,187.205 48.066 C 187.170 47.816,187.208 47.832,187.390 48.148 C 187.535 48.400,187.661 48.477,187.734 48.359 C 187.923 48.054,198.258 48.208,198.961 48.526 C 199.261 48.661,199.454 48.823,199.392 48.886 C 199.329 48.949,199.365 49.000,199.472 49.000 C 199.579 49.000,199.667 48.941,199.667 48.870 C 199.667 48.798,199.854 48.724,200.083 48.705 C 200.313 48.686,200.500 48.742,200.500 48.830 C 200.500 48.918,200.369 48.940,200.208 48.880 C 199.953 48.785,199.945 48.806,200.145 49.052 C 200.271 49.207,200.534 49.332,200.729 49.331 C 200.991 49.329,201.025 49.291,200.857 49.185 C 200.727 49.102,200.699 49.000,200.791 48.943 C 201.080 48.764,210.416 48.844,210.674 49.027 C 210.872 49.167,210.863 49.181,210.625 49.104 C 210.465 49.053,210.333 49.092,210.333 49.191 C 210.333 49.303,210.508 49.332,210.792 49.265 C 211.861 49.016,212.800 48.978,212.925 49.180 C 213.011 49.320,212.982 49.342,212.833 49.250 C 212.685 49.158,212.655 49.180,212.741 49.319 C 212.810 49.431,212.966 49.485,213.086 49.439 C 213.207 49.392,213.347 49.462,213.398 49.594 C 213.504 49.871,213.833 49.918,213.833 49.657 C 213.833 49.560,213.758 49.527,213.667 49.583 C 213.575 49.640,213.500 49.565,213.500 49.417 C 213.500 49.252,213.576 49.194,213.697 49.269 C 213.805 49.336,214.124 49.417,214.405 49.448 C 215.470 49.568,236.167 49.600,236.167 49.482 C 236.167 49.414,236.394 49.386,236.672 49.422 C 236.950 49.457,237.138 49.422,237.090 49.344 C 237.041 49.265,237.110 49.160,237.242 49.109 C 237.411 49.045,237.452 49.097,237.380 49.286 C 237.312 49.464,237.342 49.514,237.470 49.435 C 237.596 49.357,237.628 49.406,237.564 49.575 C 237.491 49.765,237.568 49.830,237.857 49.820 C 238.073 49.813,238.156 49.769,238.042 49.723 C 237.622 49.554,238.050 49.139,238.694 49.092 C 238.756 49.087,238.851 49.038,238.907 48.982 C 238.963 48.926,239.282 48.910,239.615 48.947 C 239.961 48.985,240.272 48.932,240.340 48.823 C 240.427 48.682,240.548 48.681,240.801 48.816 C 241.265 49.064,242.122 49.049,242.208 48.792 C 242.293 48.537,252.945 48.424,253.595 48.671 C 253.910 48.791,254.000 48.771,254.000 48.579 C 254.000 48.444,254.131 48.328,254.292 48.321 C 254.452 48.314,254.715 48.283,254.876 48.252 C 255.054 48.218,255.131 48.272,255.072 48.390 C 255.019 48.496,255.093 48.438,255.238 48.260 C 255.382 48.082,255.500 48.021,255.500 48.124 C 255.500 48.227,255.651 48.359,255.836 48.417 C 256.020 48.476,256.129 48.593,256.077 48.677 C 256.025 48.761,256.101 48.784,256.246 48.728 C 256.483 48.637,256.484 48.608,256.252 48.439 C 256.027 48.274,256.042 48.221,256.372 48.015 C 256.701 47.810,256.724 47.811,256.550 48.022 C 256.103 48.563,256.954 48.737,257.490 48.214 C 257.752 47.959,258.030 47.741,258.108 47.730 C 258.186 47.719,258.497 47.664,258.800 47.608 C 259.211 47.531,259.319 47.557,259.226 47.711 C 259.132 47.868,259.160 47.872,259.343 47.729 C 259.487 47.616,259.717 47.595,259.917 47.676 C 260.100 47.749,260.362 47.810,260.500 47.811 C 260.637 47.812,260.576 47.743,260.364 47.658 C 260.143 47.569,260.028 47.424,260.093 47.317 C 260.177 47.181,260.241 47.183,260.327 47.323 C 260.412 47.461,260.507 47.442,260.662 47.256 C 260.838 47.044,260.925 47.035,261.133 47.206 C 261.326 47.366,261.404 47.369,261.454 47.219 C 261.498 47.087,261.629 47.129,261.844 47.344 C 262.021 47.521,262.260 47.664,262.375 47.661 C 262.501 47.658,262.466 47.567,262.288 47.432 C 262.008 47.220,262.010 47.203,262.330 47.119 C 262.515 47.071,262.632 47.088,262.589 47.157 C 262.411 47.445,263.776 47.675,264.316 47.448 C 264.603 47.327,264.795 47.184,264.742 47.130 C 264.645 47.034,265.584 46.869,266.280 46.860 C 266.542 46.857,266.627 46.940,266.585 47.157 C 266.533 47.428,266.590 47.441,267.139 47.288 C 267.475 47.194,268.069 47.129,268.458 47.143 C 268.848 47.157,269.542 47.169,270.000 47.169 C 270.458 47.169,271.171 47.169,271.583 47.169 C 271.996 47.169,272.708 47.167,273.167 47.164 C 275.831 47.149,276.589 47.160,278.232 47.236 C 279.256 47.284,280.177 47.250,280.346 47.160 C 280.525 47.064,280.684 47.060,280.740 47.151 C 280.865 47.352,284.361 47.343,284.610 47.141 C 284.727 47.046,284.841 47.044,284.898 47.137 C 284.950 47.221,286.072 47.298,287.391 47.307 C 288.710 47.317,289.991 47.402,290.239 47.496 C 290.907 47.750,291.159 47.677,290.583 47.395 L 290.083 47.151 290.633 47.240 C 290.969 47.294,291.144 47.265,291.083 47.166 C 291.024 47.071,291.101 47.049,291.269 47.114 C 291.463 47.188,291.516 47.161,291.434 47.028 C 291.312 46.831,291.438 46.812,293.194 46.769 C 293.622 46.759,294.028 46.694,294.097 46.625 C 294.281 46.441,294.833 46.473,294.833 46.667 C 294.833 46.758,295.077 46.828,295.375 46.822 C 295.802 46.812,295.848 46.783,295.592 46.683 C 295.279 46.560,295.280 46.553,295.620 46.464 C 295.813 46.413,296.034 46.432,296.111 46.505 C 296.334 46.718,298.500 46.898,298.500 46.704 C 298.500 46.611,298.687 46.546,298.917 46.559 C 299.146 46.573,299.333 46.627,299.333 46.679 C 299.333 46.732,299.555 46.743,299.826 46.703 C 300.218 46.646,300.418 46.739,300.800 47.157 C 301.209 47.604,301.309 47.646,301.481 47.439 C 301.638 47.250,301.638 47.169,301.482 47.072 C 301.360 46.997,301.325 47.019,301.394 47.129 C 301.455 47.229,301.433 47.355,301.344 47.410 C 301.256 47.465,301.102 47.357,301.003 47.171 C 300.832 46.853,301.097 46.788,301.667 47.007 C 301.712 47.025,301.812 47.029,301.887 47.016 C 301.963 47.002,301.977 47.069,301.919 47.163 C 301.856 47.264,302.010 47.333,302.298 47.333 C 302.564 47.333,303.000 47.438,303.266 47.566 C 303.532 47.695,303.975 47.781,304.250 47.759 C 304.525 47.736,304.894 47.838,305.070 47.984 C 305.335 48.203,305.367 48.206,305.253 48.000 C 305.177 47.862,305.267 47.900,305.453 48.083 C 305.639 48.267,305.763 48.465,305.730 48.524 C 305.696 48.583,305.785 48.676,305.926 48.731 C 306.074 48.787,306.140 48.759,306.082 48.665 C 306.026 48.574,306.079 48.499,306.198 48.497 C 306.372 48.495,306.371 48.466,306.191 48.352 C 306.033 48.252,306.020 48.174,306.149 48.094 C 306.250 48.032,306.333 48.059,306.333 48.156 C 306.333 48.252,306.502 48.304,306.708 48.270 C 306.915 48.236,307.183 48.288,307.304 48.385 C 307.465 48.514,307.567 48.496,307.677 48.323 C 307.819 48.097,307.908 48.230,307.844 48.570 C 307.828 48.654,307.925 48.632,308.059 48.520 C 308.208 48.396,308.342 48.380,308.403 48.478 C 308.457 48.566,308.408 48.683,308.293 48.738 C 308.178 48.792,308.271 48.787,308.500 48.725 C 309.669 48.411,315.612 48.517,315.407 48.848 C 315.356 48.932,315.462 49.000,315.643 49.000 C 315.824 49.000,316.016 48.906,316.069 48.792 C 316.147 48.625,316.186 48.625,316.264 48.792 C 316.317 48.906,316.500 49.000,316.671 49.000 C 316.841 49.000,317.026 49.075,317.083 49.166 C 317.351 49.600,317.786 49.659,317.708 49.251 C 317.640 48.895,317.684 48.857,318.107 48.906 C 318.369 48.937,318.677 48.971,318.792 48.981 C 318.906 48.991,319.001 49.131,319.003 49.292 C 319.005 49.536,319.030 49.544,319.160 49.338 C 319.293 49.128,319.331 49.134,319.425 49.379 C 319.486 49.536,319.602 49.623,319.684 49.573 C 319.766 49.522,319.833 49.564,319.833 49.667 C 319.833 49.769,319.902 49.811,319.986 49.759 C 320.070 49.707,320.176 49.759,320.223 49.874 C 320.273 49.999,320.312 50.009,320.320 49.898 C 320.344 49.565,321.167 49.845,321.167 50.186 C 321.167 50.389,321.285 50.500,321.500 50.500 C 321.728 50.500,321.833 50.389,321.833 50.147 C 321.833 49.863,321.906 49.814,322.208 49.895 C 322.415 49.950,322.677 49.996,322.792 49.998 C 322.906 49.999,323.000 50.112,323.000 50.250 C 323.000 50.596,323.292 50.565,323.385 50.208 C 323.458 49.931,323.462 49.931,323.481 50.208 C 323.508 50.625,356.833 50.667,356.833 50.250 C 356.833 49.877,357.663 49.918,357.678 50.292 C 357.688 50.541,357.711 50.535,357.833 50.250 C 357.956 49.965,357.978 49.959,357.988 50.208 C 358.004 50.608,358.788 50.608,358.865 50.208 C 358.912 49.966,359.146 49.906,360.252 49.856 C 362.875 49.736,366.260 49.797,365.625 49.953 C 365.160 50.067,365.274 50.500,365.769 50.500 C 366.124 50.500,366.189 50.437,366.118 50.166 C 366.070 49.983,366.099 49.875,366.182 49.926 C 366.265 49.978,366.339 50.146,366.345 50.302 C 366.355 50.531,366.383 50.522,366.500 50.250 C 366.622 49.965,366.645 49.959,366.655 50.208 C 366.671 50.610,380.000 50.667,380.000 50.266 C 380.000 50.105,380.253 50.014,380.807 49.974 C 381.509 49.924,381.604 49.955,381.538 50.208 C 381.486 50.403,381.557 50.500,381.750 50.500 C 381.957 50.500,382.014 50.405,381.951 50.165 C 381.878 49.886,381.938 49.836,382.312 49.864 C 382.558 49.883,382.863 49.835,382.989 49.757 C 383.152 49.656,383.180 49.677,383.086 49.829 C 382.997 49.973,383.030 50.016,383.185 49.959 C 383.312 49.913,383.395 49.781,383.368 49.667 C 383.335 49.526,383.459 49.485,383.749 49.541 C 383.985 49.586,384.142 49.586,384.097 49.541 C 383.816 49.261,384.631 48.940,385.643 48.932 C 386.252 48.928,386.803 48.848,386.868 48.755 C 386.945 48.644,387.057 48.657,387.193 48.793 C 387.462 49.062,387.892 49.061,387.790 48.792 C 387.729 48.634,388.172 48.574,389.615 48.545 C 390.663 48.524,391.603 48.456,391.703 48.394 C 391.812 48.327,391.837 48.359,391.765 48.475 C 391.594 48.753,392.090 48.896,392.448 48.673 C 392.711 48.508,392.699 48.498,392.354 48.593 C 392.111 48.660,391.997 48.639,392.060 48.538 C 392.202 48.308,393.000 48.176,393.000 48.382 C 393.000 48.475,393.140 48.390,393.311 48.192 C 393.513 47.960,393.817 47.833,394.174 47.833 L 394.725 47.833 394.322 48.292 C 394.017 48.639,394.062 48.619,394.510 48.208 C 394.834 47.910,395.220 47.667,395.367 47.667 C 395.709 47.667,397.333 46.111,397.333 45.785 C 397.333 45.649,397.483 45.500,397.667 45.452 C 397.888 45.394,398.000 45.447,398.000 45.609 C 398.000 45.743,398.068 45.811,398.151 45.760 C 398.234 45.708,398.263 45.516,398.215 45.333 C 398.159 45.121,398.210 44.999,398.356 44.997 C 398.533 44.995,398.528 44.959,398.333 44.833 C 398.127 44.700,398.125 44.671,398.319 44.669 C 398.449 44.668,398.506 44.617,398.446 44.557 C 398.386 44.497,398.429 44.332,398.543 44.192 C 398.670 44.034,398.677 43.980,398.561 44.049 C 398.436 44.124,398.379 43.994,398.393 43.664 C 398.404 43.391,398.475 43.167,398.550 43.167 C 398.625 43.167,398.640 43.092,398.583 43.000 C 398.527 42.908,398.562 42.833,398.663 42.833 C 398.793 42.833,398.795 42.739,398.667 42.500 C 398.530 42.245,398.540 42.167,398.708 42.167 C 398.830 42.167,398.931 42.035,398.935 41.875 C 398.939 41.715,398.997 41.321,399.064 41.000 C 399.146 40.613,399.133 40.494,399.028 40.648 C 398.924 40.798,398.874 39.791,398.884 37.773 C 398.893 36.064,398.961 34.667,399.036 34.667 C 399.112 34.667,399.126 34.478,399.068 34.248 C 399.010 34.017,399.047 33.727,399.150 33.603 C 399.343 33.371,399.246 26.929,399.044 26.604 C 398.990 26.516,399.040 26.505,399.159 26.579 C 399.321 26.679,399.356 26.528,399.309 25.938 C 399.275 25.514,399.304 25.167,399.374 25.167 C 399.443 25.167,399.499 24.848,399.497 24.458 C 399.495 23.917,399.454 23.809,399.321 24.000 C 399.195 24.180,399.180 24.041,399.266 23.500 C 399.331 23.087,399.381 22.412,399.376 22.000 C 399.372 21.587,399.404 21.419,399.446 21.625 C 399.563 22.195,400.000 22.096,400.000 21.500 C 400.000 21.112,399.926 21.000,399.669 21.000 C 399.234 21.000,399.266 20.153,399.705 20.038 C 400.099 19.935,400.141 18.500,399.750 18.500 C 399.345 18.500,399.387 15.838,399.792 15.822 C 400.041 15.812,400.035 15.789,399.750 15.667 C 399.465 15.544,399.459 15.522,399.708 15.512 C 399.979 15.501,400.000 15.170,400.000 11.000 C 400.000 6.830,399.979 6.499,399.708 6.488 C 399.459 6.478,399.465 6.456,399.750 6.333 C 400.071 6.195,400.070 6.190,399.718 6.178 C 399.517 6.172,399.315 6.105,399.268 6.029 C 399.139 5.821,396.851 5.981,396.012 6.257 C 394.307 6.818,381.081 6.506,378.167 5.836 C 376.263 5.398,344.080 5.314,197.583 5.365 C 71.986 5.408,47.990 5.380,47.500 5.190 C 47.092 5.032,45.487 4.924,42.167 4.832 C 39.554 4.759,36.793 4.614,36.030 4.509 C 35.070 4.378,30.841 4.335,22.280 4.368 C 10.827 4.413,9.863 4.395,9.187 4.125 C 8.317 3.777,8.464 3.783,8.074 4.078 M6.554 42.933 C 6.509 43.050,6.366 43.105,6.236 43.055 C 5.948 42.944,5.937 42.796,6.199 42.534 C 6.435 42.299,6.688 42.583,6.554 42.933 M6.014 43.833 C 5.991 44.292,6.720 45.303,6.801 44.925 C 6.841 44.737,6.733 44.489,6.544 44.336 C 6.365 44.191,6.175 43.962,6.122 43.828 C 6.039 43.617,6.025 43.617,6.014 43.833 M23.667 45.500 C 23.341 45.711,24.093 45.711,24.583 45.500 C 24.870 45.377,24.846 45.355,24.417 45.348 C 24.142 45.343,23.804 45.411,23.667 45.500 M263.991 47.042 C 264.171 47.208,264.192 47.208,264.098 47.042 C 264.026 46.915,264.080 46.833,264.235 46.833 C 264.547 46.833,264.412 47.267,264.057 47.404 C 263.682 47.548,263.000 47.330,263.000 47.065 C 263.000 46.776,263.687 46.759,263.991 47.042 M260.987 47.518 C 261.208 47.605,261.448 47.618,261.519 47.547 C 261.591 47.475,261.409 47.404,261.116 47.387 C 260.616 47.360,260.608 47.368,260.987 47.518 M268.127 47.451 C 268.334 47.491,268.634 47.490,268.794 47.448 C 268.953 47.406,268.783 47.374,268.417 47.375 C 268.050 47.377,267.920 47.411,268.127 47.451 M271.294 47.451 C 271.501 47.491,271.801 47.490,271.960 47.448 C 272.120 47.406,271.950 47.374,271.583 47.375 C 271.217 47.377,271.086 47.411,271.294 47.451 M274.621 47.454 C 274.917 47.490,275.442 47.491,275.788 47.455 C 276.134 47.419,275.892 47.389,275.250 47.388 C 274.608 47.387,274.325 47.417,274.621 47.454 M48.708 47.782 C 48.869 47.823,49.131 47.823,49.292 47.782 C 49.452 47.740,49.321 47.705,49.000 47.705 C 48.679 47.705,48.548 47.740,48.708 47.782 M266.960 47.785 C 267.168 47.824,267.468 47.823,267.627 47.781 C 267.786 47.739,267.617 47.707,267.250 47.709 C 266.883 47.711,266.753 47.745,266.960 47.785 M269.458 47.787 C 269.756 47.824,270.244 47.824,270.542 47.787 C 270.840 47.750,270.596 47.720,270.000 47.720 C 269.404 47.720,269.160 47.750,269.458 47.787 M272.625 47.787 C 272.923 47.824,273.410 47.824,273.708 47.787 C 274.006 47.750,273.762 47.720,273.167 47.720 C 272.571 47.720,272.327 47.750,272.625 47.787 M277.382 47.790 C 278.004 47.823,278.979 47.822,279.549 47.790 C 280.118 47.757,279.608 47.731,278.417 47.731 C 277.225 47.732,276.759 47.758,277.382 47.790 M281.625 47.790 C 282.198 47.823,283.135 47.823,283.708 47.790 C 284.281 47.758,283.813 47.731,282.667 47.731 C 281.521 47.731,281.052 47.758,281.625 47.790 M286.133 47.791 C 286.894 47.822,288.094 47.822,288.800 47.790 C 289.506 47.759,288.883 47.734,287.417 47.734 C 285.950 47.734,285.372 47.760,286.133 47.791 M247.458 48.288 C 247.115 48.324,246.552 48.324,246.208 48.288 C 245.865 48.252,246.146 48.223,246.833 48.223 C 247.521 48.223,247.802 48.252,247.458 48.288 M251.960 48.281 C 251.801 48.323,251.501 48.324,251.294 48.285 C 251.086 48.245,251.217 48.211,251.583 48.209 C 251.950 48.207,252.120 48.239,251.960 48.281 M310.960 48.281 C 310.801 48.323,310.501 48.324,310.294 48.285 C 310.086 48.245,310.217 48.211,310.583 48.209 C 310.950 48.207,311.120 48.239,310.960 48.281 M185.917 48.502 C 185.641 48.605,185.693 48.648,186.216 48.750 C 186.564 48.818,186.895 48.827,186.952 48.770 C 187.009 48.713,186.899 48.667,186.708 48.667 C 186.517 48.667,186.336 48.602,186.306 48.522 C 186.275 48.443,186.100 48.434,185.917 48.502 M74.333 48.740 C 74.471 48.770,74.190 48.803,73.708 48.814 C 73.227 48.825,72.833 48.773,72.833 48.700 C 72.833 48.580,73.702 48.603,74.333 48.740 M94.795 48.621 C 95.094 48.658,95.544 48.657,95.795 48.619 C 96.045 48.581,95.800 48.551,95.250 48.552 C 94.700 48.553,94.495 48.584,94.795 48.621 M96.961 48.621 C 97.261 48.658,97.711 48.657,97.961 48.619 C 98.212 48.581,97.967 48.551,97.417 48.552 C 96.867 48.553,96.662 48.584,96.961 48.621 M99.042 48.619 C 99.294 48.658,99.706 48.658,99.958 48.619 C 100.210 48.581,100.004 48.550,99.500 48.550 C 98.996 48.550,98.790 48.581,99.042 48.619 M101.128 48.621 C 101.428 48.658,101.878 48.657,102.128 48.619 C 102.378 48.581,102.133 48.551,101.583 48.552 C 101.033 48.553,100.828 48.584,101.128 48.621 M123.208 48.619 C 123.460 48.658,123.873 48.658,124.125 48.619 C 124.377 48.581,124.171 48.550,123.667 48.550 C 123.162 48.550,122.956 48.581,123.208 48.619 M125.295 48.621 C 125.594 48.658,126.044 48.657,126.295 48.619 C 126.545 48.581,126.300 48.551,125.750 48.552 C 125.200 48.553,124.995 48.584,125.295 48.621 M127.461 48.621 C 127.761 48.658,128.211 48.657,128.461 48.619 C 128.712 48.581,128.467 48.551,127.917 48.552 C 127.367 48.553,127.162 48.584,127.461 48.621 M129.542 48.619 C 129.794 48.658,130.206 48.658,130.458 48.619 C 130.710 48.581,130.504 48.550,130.000 48.550 C 129.496 48.550,129.290 48.581,129.542 48.619 M151.628 48.621 C 151.928 48.658,152.378 48.657,152.628 48.619 C 152.878 48.581,152.633 48.551,152.083 48.552 C 151.533 48.553,151.328 48.584,151.628 48.621 M153.795 48.621 C 154.094 48.658,154.544 48.657,154.795 48.619 C 155.045 48.581,154.800 48.551,154.250 48.552 C 153.700 48.553,153.495 48.584,153.795 48.621 M155.875 48.619 C 156.127 48.658,156.540 48.658,156.792 48.619 C 157.044 48.581,156.837 48.550,156.333 48.550 C 155.829 48.550,155.623 48.581,155.875 48.619 M157.961 48.621 C 158.261 48.658,158.711 48.657,158.961 48.619 C 159.212 48.581,158.967 48.551,158.417 48.552 C 157.867 48.553,157.662 48.584,157.961 48.621 M180.128 48.621 C 180.428 48.658,180.878 48.657,181.128 48.619 C 181.378 48.581,181.133 48.551,180.583 48.552 C 180.033 48.553,179.828 48.584,180.128 48.621 M182.128 48.621 C 182.428 48.658,182.878 48.657,183.128 48.619 C 183.378 48.581,183.133 48.551,182.583 48.552 C 182.033 48.553,181.828 48.584,182.128 48.621 M190.208 48.625 C 191.560 48.653,193.773 48.653,195.125 48.625 C 196.477 48.597,195.371 48.574,192.667 48.574 C 189.963 48.574,188.856 48.597,190.208 48.625 M238.338 49.331 C 238.191 49.421,238.184 49.491,238.316 49.572 C 238.417 49.635,238.500 49.598,238.500 49.489 C 238.500 49.339,238.555 49.338,238.735 49.488 C 238.896 49.621,239.004 49.628,239.078 49.508 C 239.138 49.412,239.163 49.328,239.135 49.321 C 238.736 49.222,238.509 49.225,238.338 49.331 M210.838 49.493 C 210.703 49.579,210.642 49.698,210.702 49.758 C 210.763 49.818,210.983 49.747,211.193 49.600 C 211.604 49.313,211.279 49.215,210.838 49.493 M214.542 49.948 C 214.702 49.990,214.965 49.990,215.125 49.948 C 215.285 49.906,215.154 49.872,214.833 49.872 C 214.512 49.872,214.381 49.906,214.542 49.948 M362.544 49.953 C 362.797 49.991,363.172 49.990,363.377 49.951 C 363.582 49.911,363.375 49.880,362.917 49.881 C 362.458 49.882,362.291 49.915,362.544 49.953 " stroke="none" fill="#64b4ec" fill-rule="evenodd"></path><path id="path2" d="M15.083 3.667 C 11.692 3.716,8.954 3.789,9.000 3.828 C 9.046 3.868,15.421 3.959,23.167 4.031 C 37.669 4.167,44.102 4.313,50.750 4.659 C 53.617 4.808,69.451 4.845,113.583 4.807 C 284.676 4.659,369.145 4.822,376.250 5.314 C 378.628 5.479,379.565 5.567,383.417 5.994 C 385.049 6.175,385.663 6.162,395.583 5.721 C 397.331 5.643,397.989 5.569,397.492 5.506 C 396.764 5.413,393.475 5.495,387.410 5.760 C 384.632 5.880,381.571 5.670,378.681 5.159 C 378.184 5.072,377.167 5.000,376.419 5.000 C 375.672 5.000,374.654 4.925,374.156 4.833 C 372.143 4.461,279.269 4.330,113.583 4.465 C 71.585 4.499,53.401 4.459,50.917 4.327 C 48.992 4.225,45.129 4.078,42.333 4.001 C 39.537 3.925,36.875 3.785,36.417 3.691 C 35.550 3.513,26.383 3.503,15.083 3.667 M5.398 8.573 C 5.240 8.983,5.485 9.792,5.676 9.491 C 5.880 9.168,5.874 8.545,5.665 8.416 C 5.573 8.359,5.453 8.430,5.398 8.573 M5.200 10.367 C 5.090 10.477,5.007 10.720,5.017 10.908 C 5.031 11.197,5.052 11.186,5.156 10.833 C 5.224 10.604,5.372 10.437,5.485 10.462 C 5.599 10.488,5.644 10.431,5.586 10.337 C 5.453 10.123,5.443 10.124,5.200 10.367 M4.360 13.925 C 3.989 14.738,4.123 15.365,4.500 14.583 C 4.677 14.217,4.825 13.823,4.828 13.708 C 4.837 13.352,4.563 13.479,4.360 13.925 M4.169 15.505 C 4.173 15.842,4.458 16.265,4.591 16.131 C 4.651 16.071,4.581 15.850,4.434 15.640 C 4.262 15.395,4.168 15.346,4.169 15.505 M399.500 20.583 C 399.500 20.843,399.594 21.000,399.750 21.000 C 399.906 21.000,400.000 20.843,400.000 20.583 C 400.000 20.324,399.906 20.167,399.750 20.167 C 399.594 20.167,399.500 20.324,399.500 20.583 M3.099 24.583 C 2.949 24.813,2.851 25.000,2.883 25.000 C 2.914 25.000,3.103 24.813,3.302 24.583 C 3.501 24.354,3.599 24.167,3.518 24.167 C 3.438 24.167,3.249 24.354,3.099 24.583 M2.262 27.325 C 1.980 27.428,1.974 27.454,2.215 27.547 C 2.366 27.605,2.537 27.575,2.595 27.482 C 2.743 27.241,2.635 27.190,2.262 27.325 M1.266 30.218 C 0.975 30.430,0.722 31.755,1.005 31.580 C 1.086 31.530,1.110 31.379,1.058 31.245 C 0.997 31.086,1.069 31.000,1.260 31.000 C 1.423 31.000,1.508 30.953,1.450 30.895 C 1.392 30.837,1.423 30.643,1.519 30.464 C 1.743 30.046,1.639 29.945,1.266 30.218 M0.848 33.755 C 0.831 34.151,1.269 34.833,1.541 34.833 C 1.645 34.833,1.602 34.739,1.445 34.625 C 1.288 34.510,1.093 34.191,1.011 33.916 C 0.906 33.564,0.858 33.516,0.848 33.755 M3.252 37.503 C 3.309 37.596,3.438 37.622,3.537 37.560 C 3.641 37.496,3.671 37.526,3.606 37.629 C 3.545 37.729,3.571 37.857,3.664 37.915 C 3.758 37.973,3.833 37.867,3.833 37.677 C 3.833 37.441,3.726 37.333,3.490 37.333 C 3.300 37.333,3.194 37.409,3.252 37.503 M5.372 38.531 C 5.475 38.840,5.833 38.892,5.833 38.597 C 5.833 38.452,5.715 38.333,5.569 38.333 C 5.424 38.333,5.335 38.422,5.372 38.531 M6.186 43.651 C 6.362 44.156,6.833 44.682,6.833 44.374 C 6.833 44.282,6.721 44.114,6.583 44.000 C 6.446 43.886,6.333 43.694,6.333 43.573 C 6.333 43.452,6.261 43.309,6.173 43.254 C 6.077 43.195,6.082 43.353,6.186 43.651 M29.907 45.245 C 29.704 45.398,29.665 45.491,29.804 45.495 C 29.925 45.498,30.136 45.387,30.274 45.250 C 30.595 44.929,30.330 44.925,29.907 45.245 M25.667 45.333 C 25.667 45.425,26.009 45.500,26.427 45.500 C 26.891 45.500,27.146 45.435,27.083 45.333 C 27.027 45.242,26.685 45.167,26.323 45.167 C 25.962 45.167,25.667 45.242,25.667 45.333 M7.225 46.054 C 7.361 46.254,7.554 46.398,7.653 46.375 C 7.752 46.352,7.833 46.421,7.833 46.528 C 7.833 46.635,7.877 46.679,7.930 46.625 C 8.101 46.454,7.688 45.878,7.327 45.783 C 6.998 45.697,6.992 45.715,7.225 46.054 M8.167 46.840 C 8.167 47.043,9.018 47.871,9.121 47.768 C 9.231 47.658,8.812 47.067,8.475 46.857 C 8.269 46.728,8.167 46.722,8.167 46.840 M296.211 46.786 C 296.464 46.825,296.839 46.824,297.044 46.784 C 297.249 46.744,297.042 46.713,296.583 46.714 C 296.125 46.716,295.957 46.748,296.211 46.786 M396.748 46.836 C 396.691 46.929,396.579 46.965,396.500 46.917 C 396.421 46.868,396.312 46.899,396.259 46.986 C 396.061 47.306,396.465 47.315,396.754 46.996 C 396.918 46.815,397.007 46.667,396.952 46.667 C 396.898 46.667,396.806 46.743,396.748 46.836 M42.139 46.980 C 42.262 47.057,42.355 47.168,42.348 47.227 C 42.308 47.520,42.351 47.549,42.540 47.360 C 42.753 47.147,42.482 46.838,42.083 46.838 C 41.992 46.838,42.017 46.902,42.139 46.980 M51.500 46.975 C 51.500 47.052,51.331 47.197,51.125 47.297 C 50.919 47.396,50.835 47.483,50.940 47.489 C 51.044 47.495,51.307 47.352,51.523 47.172 C 51.740 46.992,51.823 46.842,51.708 46.839 C 51.594 46.836,51.500 46.897,51.500 46.975 M263.503 46.998 C 263.296 47.126,263.304 47.166,263.554 47.262 C 263.901 47.395,264.128 47.228,263.904 47.004 C 263.809 46.909,263.650 46.907,263.503 46.998 M291.167 47.203 L 290.583 47.531 291.164 47.429 C 291.761 47.323,292.500 46.811,291.994 46.854 C 291.860 46.865,291.487 47.022,291.167 47.203 M301.000 46.991 C 301.000 47.083,301.225 47.274,301.500 47.417 C 301.775 47.559,302.000 47.650,302.000 47.619 C 302.000 47.588,301.775 47.396,301.500 47.193 C 301.225 46.990,301.000 46.899,301.000 46.991 M265.596 47.316 C 265.298 47.433,265.295 47.450,265.567 47.554 C 266.058 47.742,266.330 47.686,266.227 47.417 C 266.121 47.141,266.065 47.132,265.596 47.316 M267.961 47.621 C 268.261 47.658,268.711 47.657,268.961 47.619 C 269.212 47.581,268.967 47.551,268.417 47.552 C 267.867 47.553,267.662 47.584,267.961 47.621 M271.128 47.621 C 271.428 47.658,271.878 47.657,272.128 47.619 C 272.378 47.581,272.133 47.551,271.583 47.552 C 271.033 47.553,270.828 47.584,271.128 47.621 M274.547 47.623 C 274.985 47.657,275.660 47.657,276.047 47.622 C 276.434 47.587,276.075 47.559,275.250 47.559 C 274.425 47.560,274.109 47.588,274.547 47.623 M46.129 47.789 C 46.521 47.824,47.121 47.824,47.463 47.788 C 47.804 47.752,47.483 47.723,46.750 47.724 C 46.017 47.724,45.737 47.754,46.129 47.789 M256.833 48.005 C 256.833 48.100,256.665 48.245,256.458 48.328 C 256.214 48.426,256.176 48.483,256.349 48.489 C 256.495 48.495,256.751 48.350,256.917 48.167 C 257.088 47.978,257.135 47.833,257.026 47.833 C 256.920 47.833,256.833 47.911,256.833 48.005 M304.977 48.172 C 305.193 48.352,305.493 48.500,305.643 48.499 C 305.806 48.499,305.696 48.364,305.371 48.166 C 304.677 47.743,304.465 47.746,304.977 48.172 M78.167 48.483 C 78.167 48.572,100.067 48.630,131.578 48.626 C 161.156 48.622,184.951 48.555,184.902 48.476 C 184.782 48.283,78.167 48.290,78.167 48.483 M209.125 49.118 C 209.331 49.157,209.669 49.157,209.875 49.118 C 210.081 49.078,209.912 49.045,209.500 49.045 C 209.088 49.045,208.919 49.078,209.125 49.118 M317.708 49.208 C 317.747 49.323,317.878 49.417,318.000 49.417 C 318.122 49.417,318.253 49.323,318.292 49.208 C 318.333 49.084,318.215 49.000,318.000 49.000 C 317.785 49.000,317.667 49.084,317.708 49.208 M209.295 49.454 C 209.594 49.491,210.044 49.490,210.295 49.452 C 210.545 49.414,210.300 49.384,209.750 49.385 C 209.200 49.386,208.995 49.417,209.295 49.454 M218.042 49.791 C 219.577 49.819,222.090 49.819,223.625 49.791 C 225.160 49.764,223.904 49.741,220.833 49.741 C 217.762 49.741,216.506 49.764,218.042 49.791 M229.801 49.791 C 230.929 49.820,232.729 49.820,233.801 49.791 C 234.873 49.762,233.950 49.738,231.750 49.739 C 229.550 49.739,228.673 49.762,229.801 49.791 M321.833 50.250 C 321.833 50.417,322.000 50.500,322.333 50.500 C 322.667 50.500,322.833 50.417,322.833 50.250 C 322.833 50.083,322.667 50.000,322.333 50.000 C 322.000 50.000,321.833 50.083,321.833 50.250 M359.167 50.250 C 359.167 50.387,359.242 50.500,359.333 50.500 C 359.425 50.500,359.500 50.387,359.500 50.250 C 359.500 50.112,359.425 50.000,359.333 50.000 C 359.242 50.000,359.167 50.112,359.167 50.250 M381.167 50.250 C 381.167 50.387,381.242 50.500,381.333 50.500 C 381.425 50.500,381.500 50.387,381.500 50.250 C 381.500 50.112,381.425 50.000,381.333 50.000 C 381.242 50.000,381.167 50.112,381.167 50.250 " stroke="none" fill="#417299" fill-rule="evenodd"></path><path id="path3" d="M7.869 3.933 C 7.343 4.163,7.022 4.578,7.219 4.774 C 7.270 4.825,7.483 4.747,7.693 4.600 C 7.903 4.453,8.001 4.332,7.912 4.330 C 7.823 4.328,7.938 4.179,8.167 4.000 C 8.654 3.619,8.610 3.609,7.869 3.933 M8.667 3.794 C 8.667 4.360,10.050 4.417,22.429 4.366 C 30.944 4.331,35.030 4.373,36.012 4.507 C 36.785 4.613,39.554 4.759,42.167 4.832 C 45.487 4.924,47.092 5.032,47.500 5.190 C 47.990 5.380,71.986 5.408,197.583 5.365 C 344.080 5.314,376.263 5.398,378.167 5.836 C 381.087 6.507,394.384 6.820,395.986 6.255 C 396.368 6.120,397.128 5.996,397.674 5.980 C 398.220 5.964,398.667 5.878,398.667 5.789 C 398.667 5.623,395.954 5.686,388.917 6.014 C 386.272 6.137,384.762 6.132,383.500 5.997 C 382.537 5.894,381.075 5.737,380.250 5.648 C 376.792 5.276,373.206 5.132,363.583 4.978 C 353.059 4.810,217.216 4.717,113.583 4.807 C 69.451 4.845,53.617 4.808,50.750 4.659 C 44.067 4.311,37.636 4.166,23.250 4.039 C 15.550 3.971,9.119 3.851,8.958 3.773 C 8.783 3.687,8.667 3.696,8.667 3.794 M5.547 10.268 C 5.346 10.494,5.224 10.788,5.275 10.922 C 5.327 11.057,5.282 11.167,5.175 11.167 C 5.068 11.167,5.033 11.251,5.097 11.355 C 5.176 11.483,5.261 11.456,5.365 11.270 C 5.449 11.120,5.475 10.927,5.422 10.842 C 5.369 10.756,5.491 10.533,5.693 10.345 C 5.894 10.157,6.026 9.971,5.986 9.930 C 5.946 9.890,5.748 10.042,5.547 10.268 M399.500 17.167 C 399.500 18.241,399.549 18.500,399.750 18.500 C 399.951 18.500,400.000 18.241,400.000 17.167 C 400.000 16.093,399.951 15.833,399.750 15.833 C 399.549 15.833,399.500 16.093,399.500 17.167 M4.872 20.000 C 4.872 20.321,4.906 20.452,4.948 20.292 C 4.990 20.131,4.990 19.869,4.948 19.708 C 4.906 19.548,4.872 19.679,4.872 20.000 M399.375 21.917 C 399.377 22.283,399.411 22.414,399.451 22.206 C 399.491 21.999,399.490 21.699,399.448 21.540 C 399.406 21.380,399.374 21.550,399.375 21.917 M4.328 22.089 C 4.213 22.228,4.165 22.387,4.220 22.443 C 4.276 22.498,4.240 22.703,4.140 22.897 C 3.968 23.233,3.977 23.231,4.321 22.873 C 4.521 22.665,4.642 22.428,4.591 22.345 C 4.540 22.263,4.588 22.165,4.699 22.128 C 4.839 22.081,4.845 22.027,4.719 21.949 C 4.619 21.887,4.444 21.950,4.328 22.089 M399.165 28.049 L 399.247 29.583 399.298 28.182 C 399.325 27.412,399.288 26.721,399.215 26.648 C 399.143 26.575,399.120 27.205,399.165 28.049 M2.221 27.855 C 2.264 28.020,2.220 28.139,2.123 28.119 C 1.951 28.084,1.591 29.313,1.732 29.454 C 1.770 29.492,1.856 29.275,1.923 28.970 C 1.990 28.666,2.185 28.319,2.356 28.199 C 2.735 27.933,2.763 27.556,2.404 27.556 C 2.234 27.556,2.170 27.661,2.221 27.855 M1.480 30.542 C 1.469 30.656,1.469 30.806,1.480 30.875 C 1.491 30.944,1.387 31.000,1.250 31.000 C 0.951 31.000,0.942 31.079,1.186 31.536 C 1.343 31.830,1.330 31.868,1.103 31.781 C 0.882 31.696,0.833 31.799,0.833 32.350 C 0.833 32.948,0.861 32.996,1.083 32.774 C 1.220 32.637,1.287 32.406,1.231 32.260 C 1.154 32.060,1.205 32.021,1.440 32.097 C 1.618 32.155,1.679 32.138,1.583 32.057 C 1.372 31.879,1.291 31.500,1.465 31.500 C 1.537 31.500,1.603 31.238,1.612 30.917 C 1.626 30.372,1.524 30.080,1.480 30.542 M399.205 31.000 C 399.205 31.321,399.240 31.452,399.282 31.292 C 399.323 31.131,399.323 30.869,399.282 30.708 C 399.240 30.548,399.205 30.679,399.205 31.000 M399.072 33.998 C 399.098 34.366,399.070 34.667,399.010 34.667 C 398.949 34.667,398.893 36.064,398.884 37.773 C 398.874 39.791,398.924 40.798,399.028 40.648 C 399.133 40.494,399.146 40.613,399.064 41.000 C 398.997 41.321,398.939 41.715,398.935 41.875 C 398.931 42.035,398.830 42.167,398.708 42.167 C 398.543 42.167,398.531 42.246,398.659 42.487 C 398.784 42.719,398.774 42.829,398.624 42.890 C 398.500 42.940,398.533 42.979,398.705 42.987 C 399.019 43.001,399.268 42.338,399.107 41.917 C 399.054 41.779,399.087 41.667,399.181 41.667 C 399.386 41.667,399.364 33.538,399.158 33.412 C 399.085 33.366,399.046 33.630,399.072 33.998 M1.774 35.918 C 1.827 36.056,2.035 36.211,2.236 36.261 C 2.439 36.312,2.683 36.570,2.786 36.843 C 2.923 37.206,3.072 37.327,3.361 37.311 C 3.734 37.289,3.735 37.285,3.388 37.217 C 3.174 37.176,2.958 36.952,2.860 36.672 C 2.769 36.412,2.539 36.148,2.347 36.088 C 2.156 36.027,2.000 35.908,2.000 35.822 C 2.000 35.737,1.927 35.667,1.839 35.667 C 1.750 35.667,1.721 35.780,1.774 35.918 M5.895 38.708 C 5.950 38.915,5.996 39.327,5.998 39.625 C 5.999 39.993,6.080 40.167,6.248 40.167 C 6.411 40.167,6.484 40.023,6.462 39.750 C 6.443 39.521,6.361 39.333,6.279 39.333 C 6.198 39.333,6.174 39.221,6.227 39.083 C 6.280 38.946,6.242 38.833,6.144 38.833 C 6.045 38.833,6.008 38.721,6.060 38.583 C 6.113 38.446,6.075 38.333,5.975 38.333 C 5.869 38.333,5.836 38.488,5.895 38.708 M6.116 40.958 C 5.946 41.262,5.857 41.936,5.965 42.108 C 6.148 42.399,6.409 42.011,6.459 41.375 C 6.497 40.887,6.295 40.640,6.116 40.958 M6.261 42.482 C 6.198 42.584,6.245 42.668,6.365 42.669 C 6.503 42.671,6.520 42.717,6.411 42.794 C 6.212 42.936,6.193 43.261,6.375 43.403 C 6.444 43.456,6.465 43.453,6.423 43.395 C 6.380 43.337,6.412 43.164,6.494 43.011 C 6.667 42.688,6.445 42.184,6.261 42.482 M398.389 43.449 C 398.389 43.702,398.697 43.658,398.786 43.392 C 398.817 43.299,398.741 43.222,398.616 43.222 C 398.491 43.222,398.389 43.324,398.389 43.449 M25.147 44.809 C 25.136 44.868,25.136 44.973,25.147 45.042 C 25.179 45.242,24.585 45.185,24.367 44.967 C 24.211 44.811,24.167 44.815,24.167 44.986 C 24.167 45.117,24.043 45.173,23.861 45.126 C 23.674 45.077,23.556 45.135,23.556 45.275 C 23.556 45.433,23.664 45.469,23.903 45.390 C 24.094 45.327,25.480 45.285,26.982 45.296 C 29.528 45.316,30.667 45.148,30.667 44.753 C 30.667 44.635,25.169 44.692,25.147 44.809 M30.310 45.185 C 30.156 45.282,30.257 45.329,30.625 45.331 C 30.923 45.332,31.167 45.305,31.167 45.269 C 31.167 45.118,30.517 45.053,30.310 45.185 M31.444 45.111 C 31.189 45.366,31.376 45.472,32.083 45.472 C 32.829 45.472,33.068 45.293,32.575 45.103 C 32.426 45.046,32.359 45.074,32.418 45.169 C 32.474 45.259,32.445 45.333,32.353 45.333 C 32.261 45.333,32.140 45.258,32.083 45.167 C 31.966 44.977,31.610 44.946,31.444 45.111 M34.000 45.500 C 33.821 45.616,33.999 45.662,34.625 45.664 C 35.106 45.666,35.500 45.592,35.500 45.500 C 35.500 45.287,34.330 45.287,34.000 45.500 M397.625 45.460 C 397.465 45.495,397.333 45.594,397.333 45.679 C 397.333 45.892,397.789 45.874,397.924 45.656 C 398.064 45.428,397.989 45.379,397.625 45.460 M7.250 45.666 C 7.193 45.758,7.268 45.833,7.417 45.833 C 7.585 45.833,7.641 45.911,7.566 46.042 C 7.501 46.156,7.511 46.191,7.590 46.120 C 7.668 46.048,7.836 46.161,7.961 46.370 C 8.109 46.615,8.156 46.642,8.095 46.445 C 8.043 46.277,8.000 46.073,8.000 45.992 C 8.000 45.750,7.368 45.475,7.250 45.666 M18.187 45.851 C 17.713 45.948,16.852 46.733,16.836 47.083 C 16.832 47.175,16.764 47.148,16.685 47.024 C 16.585 46.866,16.507 46.854,16.428 46.982 C 16.365 47.084,16.398 47.167,16.500 47.167 C 16.602 47.167,16.638 47.260,16.579 47.375 C 16.520 47.490,16.684 47.339,16.944 47.040 C 17.224 46.718,17.574 46.498,17.802 46.498 C 18.013 46.499,18.147 46.436,18.098 46.357 C 18.050 46.279,18.214 46.247,18.463 46.287 C 18.818 46.344,18.862 46.321,18.667 46.182 C 18.460 46.036,18.484 46.005,18.802 46.003 C 19.016 46.001,19.141 46.074,19.083 46.167 C 19.023 46.264,19.196 46.333,19.500 46.333 C 19.804 46.333,19.977 46.264,19.917 46.167 C 19.859 46.074,19.984 46.001,20.198 46.003 C 20.508 46.005,20.534 46.037,20.333 46.167 C 20.120 46.305,20.126 46.329,20.375 46.331 C 20.543 46.332,20.667 46.209,20.667 46.042 C 20.666 45.731,19.291 45.625,18.187 45.851 M39.500 45.818 C 39.637 45.915,39.691 45.996,39.619 45.997 C 39.430 46.001,39.814 46.667,40.006 46.667 C 40.094 46.667,40.167 46.587,40.167 46.490 C 40.167 46.393,40.097 46.357,40.012 46.409 C 39.927 46.462,39.833 46.341,39.804 46.141 C 39.774 45.940,39.637 45.746,39.500 45.709 C 39.278 45.649,39.278 45.661,39.500 45.818 M52.945 46.444 C 52.707 46.760,52.701 46.810,52.911 46.729 C 53.052 46.675,53.168 46.545,53.169 46.441 C 53.171 46.326,53.229 46.341,53.317 46.479 C 53.396 46.604,53.547 46.679,53.651 46.644 C 53.770 46.604,53.727 46.483,53.537 46.321 C 53.259 46.082,53.210 46.092,52.945 46.444 M396.948 46.436 C 396.744 46.709,396.717 46.826,396.865 46.795 C 396.985 46.770,397.141 46.608,397.212 46.434 C 397.399 45.974,397.293 45.975,396.948 46.436 M295.583 46.500 C 295.290 46.626,295.306 46.645,295.718 46.655 C 295.990 46.662,296.143 46.597,296.083 46.500 C 296.027 46.408,295.966 46.339,295.948 46.345 C 295.931 46.351,295.767 46.421,295.583 46.500 M294.083 46.667 C 294.027 46.758,294.130 46.833,294.314 46.833 C 294.497 46.833,294.693 46.758,294.750 46.667 C 294.807 46.575,294.703 46.500,294.520 46.500 C 294.336 46.500,294.140 46.575,294.083 46.667 M8.333 46.729 C 8.333 46.745,8.483 46.888,8.667 47.045 C 8.922 47.263,9.000 47.276,9.000 47.101 C 9.000 46.975,8.850 46.833,8.667 46.785 C 8.483 46.737,8.333 46.712,8.333 46.729 M61.542 46.791 C 62.344 46.821,63.656 46.821,64.458 46.791 C 65.260 46.760,64.604 46.735,63.000 46.735 C 61.396 46.735,60.740 46.760,61.542 46.791 M66.628 46.787 C 66.928 46.825,67.378 46.824,67.628 46.786 C 67.878 46.748,67.633 46.717,67.083 46.718 C 66.533 46.719,66.328 46.750,66.628 46.787 M42.266 46.975 C 42.208 47.067,42.310 47.098,42.507 47.046 C 42.727 46.989,42.830 47.031,42.799 47.165 C 42.749 47.377,42.812 47.403,43.847 47.592 C 44.324 47.679,44.444 47.649,44.444 47.441 C 44.444 47.298,44.383 47.219,44.309 47.265 C 44.235 47.311,44.003 47.258,43.795 47.147 C 43.473 46.975,43.441 46.981,43.583 47.189 C 43.704 47.366,43.682 47.362,43.500 47.175 C 43.207 46.872,42.409 46.743,42.266 46.975 M50.920 47.093 C 50.710 47.252,50.420 47.306,50.121 47.240 C 49.842 47.179,49.550 47.223,49.397 47.350 C 49.194 47.518,49.115 47.519,49.013 47.355 C 48.931 47.221,48.723 47.188,48.430 47.261 C 48.118 47.340,48.029 47.429,48.147 47.547 C 48.265 47.665,48.395 47.656,48.561 47.518 C 48.726 47.381,48.838 47.373,48.912 47.492 C 49.145 47.869,51.333 47.408,51.333 46.982 C 51.333 46.791,51.314 46.796,50.920 47.093 M68.167 46.933 C 68.167 46.957,68.285 47.094,68.429 47.238 C 68.730 47.540,69.000 47.580,69.000 47.323 C 69.000 47.226,68.925 47.193,68.833 47.250 C 68.742 47.307,68.667 47.249,68.667 47.121 C 68.667 46.993,68.554 46.889,68.417 46.889 C 68.279 46.889,68.167 46.909,68.167 46.933 M265.002 46.984 C 264.440 47.138,264.771 47.306,265.542 47.258 C 265.885 47.236,266.167 47.263,266.167 47.318 C 266.167 47.373,271.542 47.437,278.111 47.459 C 284.680 47.482,290.016 47.461,289.968 47.413 C 289.920 47.365,288.781 47.317,287.437 47.308 C 286.093 47.298,284.950 47.221,284.898 47.137 C 284.841 47.044,284.727 47.046,284.610 47.141 C 284.361 47.343,280.865 47.352,280.740 47.151 C 280.684 47.060,280.525 47.064,280.346 47.160 C 280.177 47.250,279.256 47.284,278.232 47.236 C 276.589 47.160,275.831 47.149,273.167 47.164 C 272.708 47.167,271.996 47.169,271.583 47.169 C 271.171 47.169,270.458 47.169,270.000 47.169 C 269.542 47.169,268.848 47.165,268.458 47.161 C 268.069 47.157,267.428 47.186,267.035 47.227 C 266.481 47.283,266.359 47.253,266.491 47.094 C 266.688 46.857,265.722 46.786,265.002 46.984 M301.567 47.128 C 301.742 47.333,302.005 47.491,302.151 47.481 C 302.365 47.465,302.359 47.446,302.123 47.385 C 301.956 47.341,301.877 47.224,301.941 47.112 C 302.003 47.005,301.992 46.972,301.917 47.040 C 301.842 47.108,301.661 47.072,301.515 46.960 C 301.353 46.835,301.373 46.900,301.567 47.128 M260.662 47.256 C 260.507 47.442,260.412 47.461,260.327 47.323 C 260.244 47.188,260.175 47.185,260.097 47.311 C 259.947 47.554,260.710 47.730,261.196 47.565 C 261.409 47.493,261.637 47.448,261.702 47.465 C 261.768 47.482,261.776 47.378,261.721 47.234 C 261.643 47.032,261.590 47.021,261.490 47.184 C 261.387 47.349,261.306 47.351,261.118 47.196 C 260.928 47.038,260.832 47.051,260.662 47.256 M9.167 47.583 C 9.167 47.721,9.288 47.833,9.437 47.833 C 9.659 47.833,9.670 47.788,9.500 47.583 C 9.386 47.446,9.264 47.333,9.230 47.333 C 9.195 47.333,9.167 47.446,9.167 47.583 M44.667 47.500 C 44.667 47.592,44.850 47.667,45.073 47.667 C 45.297 47.667,45.527 47.592,45.583 47.500 C 45.643 47.403,45.474 47.333,45.177 47.333 C 44.896 47.333,44.667 47.408,44.667 47.500 M302.500 47.500 C 302.500 47.592,302.606 47.667,302.736 47.667 C 302.866 47.667,303.110 47.714,303.278 47.772 C 303.546 47.865,303.543 47.846,303.250 47.611 C 302.871 47.307,302.500 47.253,302.500 47.500 M10.245 48.009 C 10.132 48.192,10.628 48.544,10.826 48.421 C 10.922 48.362,11.000 48.402,11.000 48.510 C 11.000 48.632,11.166 48.674,11.441 48.621 C 11.683 48.575,12.096 48.598,12.357 48.674 C 12.638 48.754,12.833 48.746,12.833 48.655 C 12.833 48.570,12.679 48.500,12.490 48.500 C 12.301 48.500,12.183 48.441,12.228 48.369 C 12.272 48.297,12.164 48.238,11.988 48.238 C 11.811 48.238,11.667 48.302,11.667 48.381 C 11.667 48.460,11.552 48.409,11.412 48.269 C 11.272 48.129,11.034 48.061,10.885 48.119 C 10.723 48.181,10.654 48.155,10.715 48.056 C 10.772 47.964,10.706 47.889,10.569 47.889 C 10.431 47.889,10.285 47.943,10.245 48.009 M15.000 48.101 C 15.000 48.309,14.896 48.345,14.542 48.263 C 14.185 48.180,14.139 48.197,14.333 48.338 C 14.526 48.478,14.462 48.496,14.058 48.417 C 13.754 48.357,13.486 48.388,13.423 48.490 C 13.283 48.717,14.407 48.728,14.825 48.505 C 15.165 48.323,15.410 47.833,15.161 47.833 C 15.073 47.833,15.000 47.954,15.000 48.101 M70.167 47.939 C 70.167 48.105,70.864 48.667,71.067 48.664 C 71.168 48.663,71.137 48.589,71.000 48.500 C 70.862 48.411,70.825 48.335,70.917 48.331 C 71.008 48.326,70.938 48.213,70.760 48.078 C 70.420 47.821,70.167 47.761,70.167 47.939 M76.833 47.985 C 76.833 48.372,77.877 48.411,86.167 48.333 C 93.552 48.264,95.002 48.214,94.607 48.039 C 94.052 47.793,76.833 47.741,76.833 47.985 M100.202 48.020 C 99.633 48.230,99.761 48.333,100.593 48.333 C 101.011 48.333,101.312 48.267,101.262 48.187 C 101.118 47.953,100.602 47.871,100.202 48.020 M102.375 47.949 C 100.849 48.251,103.074 48.333,112.700 48.333 C 121.260 48.333,123.358 48.292,123.192 48.125 C 122.989 47.922,103.353 47.756,102.375 47.949 M124.369 48.020 C 123.799 48.230,123.928 48.333,124.760 48.333 C 125.178 48.333,125.479 48.267,125.429 48.187 C 125.285 47.953,124.769 47.871,124.369 48.020 M130.708 48.003 C 130.502 48.087,130.333 48.196,130.333 48.245 C 130.333 48.293,135.186 48.333,141.117 48.333 C 149.743 48.333,151.858 48.292,151.692 48.125 C 151.437 47.870,131.322 47.753,130.708 48.003 M157.035 48.020 C 156.466 48.230,156.594 48.333,157.427 48.333 C 157.844 48.333,158.146 48.267,158.096 48.187 C 157.951 47.953,157.436 47.871,157.035 48.020 M159.208 47.949 C 157.683 48.251,159.908 48.333,169.533 48.333 C 178.093 48.333,180.192 48.292,180.025 48.125 C 179.822 47.922,160.187 47.756,159.208 47.949 M181.292 47.962 C 180.739 48.080,181.001 48.333,181.677 48.333 C 182.049 48.333,182.312 48.267,182.262 48.187 C 182.144 47.995,181.659 47.883,181.292 47.962 M183.333 48.039 C 182.883 48.238,185.129 48.584,185.958 48.443 C 186.165 48.408,186.333 48.444,186.333 48.523 C 186.333 48.602,186.596 48.667,186.917 48.667 C 187.519 48.667,187.642 48.465,187.324 48.000 C 187.181 47.792,187.161 47.803,187.201 48.066 C 187.228 48.240,187.156 48.415,187.042 48.455 C 186.927 48.495,186.833 48.456,186.833 48.369 C 186.833 48.282,186.533 48.236,186.167 48.267 C 185.665 48.310,185.500 48.263,185.500 48.079 C 185.500 47.779,183.984 47.751,183.333 48.039 M393.292 48.207 C 393.131 48.405,393.000 48.488,393.000 48.390 C 393.000 48.291,392.816 48.248,392.581 48.293 C 391.884 48.426,391.979 48.593,392.770 48.628 C 393.296 48.651,393.481 48.604,393.397 48.468 C 393.320 48.343,393.370 48.312,393.540 48.377 C 393.686 48.433,393.917 48.350,394.061 48.191 C 394.298 47.929,394.289 47.902,393.952 47.875 C 393.747 47.859,393.454 48.006,393.292 48.207 M95.667 48.167 C 95.667 48.258,95.971 48.333,96.343 48.333 C 96.752 48.333,96.979 48.267,96.917 48.167 C 96.860 48.075,96.556 48.000,96.240 48.000 C 95.925 48.000,95.667 48.075,95.667 48.167 M97.833 48.167 C 97.833 48.258,98.138 48.333,98.510 48.333 C 98.918 48.333,99.146 48.267,99.083 48.167 C 99.027 48.075,98.722 48.000,98.407 48.000 C 98.091 48.000,97.833 48.075,97.833 48.167 M126.250 48.167 C 126.188 48.267,126.415 48.333,126.823 48.333 C 127.196 48.333,127.500 48.258,127.500 48.167 C 127.500 48.075,127.242 48.000,126.927 48.000 C 126.611 48.000,126.307 48.075,126.250 48.167 M128.333 48.167 C 128.333 48.258,128.638 48.333,129.010 48.333 C 129.418 48.333,129.646 48.267,129.583 48.167 C 129.527 48.075,129.222 48.000,128.907 48.000 C 128.591 48.000,128.333 48.075,128.333 48.167 M152.500 48.167 C 152.500 48.258,152.804 48.333,153.177 48.333 C 153.585 48.333,153.812 48.267,153.750 48.167 C 153.693 48.075,153.389 48.000,153.073 48.000 C 152.758 48.000,152.500 48.075,152.500 48.167 M154.667 48.167 C 154.667 48.258,154.971 48.333,155.343 48.333 C 155.752 48.333,155.979 48.267,155.917 48.167 C 155.860 48.075,155.556 48.000,155.240 48.000 C 154.925 48.000,154.667 48.075,154.667 48.167 M255.189 48.312 C 255.078 48.461,255.028 48.496,255.078 48.390 C 255.132 48.273,255.052 48.218,254.876 48.252 C 254.715 48.283,254.452 48.314,254.292 48.321 C 253.702 48.346,254.021 48.666,254.625 48.655 C 255.487 48.639,255.861 48.474,255.594 48.228 C 255.441 48.086,255.340 48.107,255.189 48.312 M306.103 48.135 C 306.044 48.230,306.240 48.385,306.540 48.481 C 307.193 48.691,308.533 48.688,308.403 48.478 C 308.352 48.395,308.246 48.368,308.167 48.417 C 308.088 48.465,307.971 48.421,307.907 48.318 C 307.825 48.184,307.754 48.192,307.659 48.346 C 307.563 48.501,307.463 48.512,307.304 48.386 C 307.183 48.289,306.935 48.233,306.754 48.262 C 306.573 48.291,306.376 48.236,306.317 48.140 C 306.243 48.021,306.174 48.019,306.103 48.135 M76.089 48.325 C 76.027 48.424,75.918 48.469,75.846 48.425 C 75.775 48.380,75.573 48.452,75.400 48.583 C 75.091 48.817,75.091 48.823,75.417 48.823 C 75.790 48.823,76.445 48.389,76.296 48.241 C 76.243 48.188,76.150 48.226,76.089 48.325 M76.500 48.403 C 76.500 48.548,76.619 48.667,76.764 48.667 C 77.058 48.667,77.007 48.308,76.698 48.205 C 76.589 48.169,76.500 48.258,76.500 48.403 M187.748 48.336 C 187.683 48.442,189.382 48.508,192.532 48.521 C 195.218 48.533,197.567 48.564,197.750 48.590 C 197.933 48.616,198.346 48.685,198.667 48.743 L 199.250 48.849 198.844 48.550 C 198.375 48.205,187.953 48.004,187.748 48.336 M246.208 48.288 C 246.552 48.324,247.115 48.324,247.458 48.288 C 247.802 48.252,247.521 48.223,246.833 48.223 C 246.146 48.223,245.865 48.252,246.208 48.288 M251.294 48.285 C 251.501 48.324,251.801 48.323,251.960 48.281 C 252.120 48.239,251.950 48.207,251.583 48.209 C 251.217 48.211,251.086 48.245,251.294 48.285 M310.294 48.285 C 310.501 48.324,310.801 48.323,310.960 48.281 C 311.120 48.239,310.950 48.207,310.583 48.209 C 310.217 48.211,310.086 48.245,310.294 48.285 M391.615 48.440 C 391.557 48.499,391.000 48.536,390.379 48.523 C 389.758 48.509,389.025 48.567,388.750 48.651 C 388.370 48.768,388.673 48.808,390.014 48.819 C 391.477 48.831,391.778 48.791,391.778 48.583 C 391.778 48.301,391.765 48.290,391.615 48.440 M72.833 48.700 C 72.833 48.773,73.227 48.825,73.708 48.814 C 74.617 48.794,74.530 48.728,73.458 48.626 C 73.115 48.594,72.833 48.627,72.833 48.700 M242.991 48.676 C 242.843 48.770,244.901 48.825,248.333 48.820 C 251.419 48.816,253.766 48.751,253.579 48.675 C 253.114 48.487,243.289 48.487,242.991 48.676 M308.917 48.668 C 308.720 48.752,310.015 48.806,312.083 48.799 C 314.322 48.793,315.283 48.743,314.750 48.663 C 313.604 48.490,309.326 48.494,308.917 48.668 M201.708 48.948 C 201.869 48.990,202.131 48.990,202.292 48.948 C 202.452 48.906,202.321 48.872,202.000 48.872 C 201.679 48.872,201.548 48.906,201.708 48.948 M203.458 48.954 C 203.756 48.991,204.244 48.991,204.542 48.954 C 204.840 48.917,204.596 48.887,204.000 48.887 C 203.404 48.887,203.160 48.917,203.458 48.954 M205.458 48.951 C 205.665 48.991,206.002 48.991,206.208 48.951 C 206.415 48.911,206.246 48.879,205.833 48.879 C 205.421 48.879,205.252 48.911,205.458 48.951 M207.128 48.954 C 207.428 48.991,207.878 48.990,208.128 48.952 C 208.378 48.914,208.133 48.884,207.583 48.885 C 207.033 48.886,206.828 48.917,207.128 48.954 M209.014 48.896 C 209.052 48.931,209.494 49.002,209.996 49.055 C 210.591 49.116,210.823 49.095,210.663 48.994 C 210.434 48.850,208.860 48.756,209.014 48.896 M318.284 49.163 C 318.342 49.384,318.467 49.484,318.614 49.428 C 318.745 49.378,318.805 49.411,318.749 49.502 C 318.693 49.593,318.726 49.667,318.823 49.667 C 318.921 49.667,319.000 49.517,319.000 49.333 C 319.000 49.150,318.931 49.000,318.847 49.000 C 318.763 49.000,318.581 48.957,318.442 48.904 C 318.252 48.830,318.214 48.894,318.284 49.163 M384.848 48.954 C 384.627 48.996,384.340 49.136,384.211 49.265 C 384.082 49.394,383.827 49.500,383.645 49.500 C 383.463 49.500,383.360 49.575,383.417 49.667 C 383.473 49.758,383.670 49.833,383.853 49.833 C 384.065 49.833,384.142 49.762,384.066 49.638 C 383.985 49.507,384.036 49.478,384.223 49.550 C 384.562 49.680,385.032 49.520,384.907 49.318 C 384.857 49.237,384.932 49.215,385.075 49.270 C 385.217 49.324,385.333 49.291,385.333 49.196 C 385.333 49.100,385.540 48.991,385.792 48.953 C 386.241 48.885,386.241 48.883,385.750 48.881 C 385.475 48.880,385.069 48.913,384.848 48.954 M211.186 49.155 C 211.030 49.251,211.066 49.312,211.319 49.378 C 211.510 49.428,211.667 49.405,211.667 49.328 C 211.667 49.101,211.418 49.011,211.186 49.155 M211.833 49.250 C 211.833 49.387,211.950 49.500,212.093 49.500 C 212.236 49.500,212.313 49.436,212.264 49.357 C 212.216 49.278,212.362 49.234,212.589 49.259 C 212.816 49.284,212.959 49.236,212.908 49.152 C 212.745 48.889,211.833 48.972,211.833 49.250 M237.207 49.111 C 237.092 49.157,237.038 49.260,237.088 49.340 C 237.137 49.420,236.950 49.457,236.672 49.422 C 236.393 49.386,236.167 49.435,236.167 49.530 C 236.167 49.633,235.980 49.661,235.708 49.599 C 235.325 49.512,235.300 49.525,235.552 49.679 C 235.906 49.893,237.442 49.728,237.609 49.459 C 237.678 49.347,237.637 49.332,237.497 49.418 C 237.337 49.517,237.306 49.479,237.383 49.277 C 237.442 49.125,237.473 49.006,237.453 49.013 C 237.433 49.020,237.322 49.064,237.207 49.111 M213.500 49.417 C 213.500 49.565,213.569 49.644,213.652 49.592 C 213.736 49.540,213.830 49.573,213.861 49.666 C 213.898 49.777,214.673 49.784,216.167 49.685 L 218.417 49.536 216.667 49.520 C 214.675 49.502,213.979 49.443,213.697 49.269 C 213.576 49.194,213.500 49.252,213.500 49.417 M319.204 49.415 C 319.258 49.774,319.833 49.990,319.833 49.651 C 319.833 49.537,319.784 49.493,319.725 49.553 C 319.665 49.613,319.512 49.531,319.385 49.372 C 319.169 49.102,319.157 49.105,319.204 49.415 M212.561 49.536 C 212.517 49.608,212.672 49.667,212.907 49.667 C 213.141 49.667,213.333 49.608,213.333 49.536 C 213.333 49.464,213.178 49.405,212.988 49.405 C 212.798 49.405,212.606 49.464,212.561 49.536 M221.128 49.621 C 221.428 49.658,221.878 49.657,222.128 49.619 C 222.378 49.581,222.133 49.551,221.583 49.552 C 221.033 49.553,220.828 49.584,221.128 49.621 M225.667 49.674 C 226.171 49.743,226.883 49.798,227.250 49.795 C 227.894 49.789,227.888 49.784,227.083 49.659 C 226.625 49.588,225.912 49.533,225.500 49.538 L 224.750 49.547 225.667 49.674 M228.461 49.621 C 228.761 49.658,229.211 49.657,229.461 49.619 C 229.712 49.581,229.467 49.551,228.917 49.552 C 228.367 49.553,228.162 49.584,228.461 49.621 M232.628 49.621 C 232.928 49.658,233.378 49.657,233.628 49.619 C 233.878 49.581,233.633 49.551,233.083 49.552 C 232.533 49.553,232.328 49.584,232.628 49.621 M362.208 49.788 C 362.552 49.824,363.115 49.824,363.458 49.788 C 363.802 49.752,363.521 49.723,362.833 49.723 C 362.146 49.723,361.865 49.752,362.208 49.788 M358.922 50.049 C 358.851 50.213,358.839 50.394,358.896 50.452 C 359.065 50.621,359.202 50.383,359.124 50.055 C 359.055 49.764,359.046 49.763,358.922 50.049 M356.833 50.250 C 356.833 50.406,356.991 50.500,357.250 50.500 C 357.509 50.500,357.667 50.406,357.667 50.250 C 357.667 50.094,357.509 50.000,357.250 50.000 C 356.991 50.000,356.833 50.094,356.833 50.250 M380.000 50.250 C 380.000 50.425,380.176 50.500,380.583 50.500 C 380.991 50.500,381.167 50.425,381.167 50.250 C 381.167 50.075,380.991 50.000,380.583 50.000 C 380.176 50.000,380.000 50.075,380.000 50.250 " stroke="none" fill="#4c84b4" fill-rule="evenodd"></path><path id="path4" d="M9.102 3.341 C 7.120 3.677,8.494 3.743,15.466 3.647 C 27.240 3.485,35.496 3.502,36.417 3.691 C 36.875 3.785,39.537 3.925,42.333 4.001 C 45.129 4.078,48.992 4.225,50.917 4.327 C 53.401 4.459,71.585 4.499,113.583 4.465 C 279.269 4.330,372.143 4.461,374.156 4.833 C 374.654 4.925,375.672 5.000,376.419 5.000 C 377.167 5.000,378.184 5.072,378.681 5.159 C 381.571 5.670,384.632 5.880,387.410 5.760 C 394.635 5.445,396.793 5.410,398.118 5.586 C 399.169 5.725,399.448 5.721,399.322 5.570 C 399.027 5.215,396.822 5.018,394.167 5.110 C 386.021 5.393,379.756 5.196,378.331 4.611 C 377.522 4.278,373.924 4.188,355.750 4.041 C 334.326 3.867,138.567 3.914,121.917 4.096 C 114.400 4.179,107.350 4.230,106.250 4.210 C 98.045 4.064,61.891 4.009,60.095 4.141 C 58.465 4.260,57.204 4.241,55.083 4.064 C 53.525 3.934,51.275 3.759,50.083 3.675 C 48.892 3.591,47.675 3.448,47.380 3.358 C 46.719 3.154,10.293 3.138,9.102 3.341 M399.375 23.250 C 399.377 23.617,399.411 23.747,399.451 23.540 C 399.491 23.332,399.490 23.032,399.448 22.873 C 399.406 22.714,399.374 22.883,399.375 23.250 M27.796 45.456 C 28.188 45.491,28.788 45.490,29.129 45.454 C 29.471 45.419,29.150 45.390,28.417 45.390 C 27.683 45.391,27.404 45.420,27.796 45.456 M20.931 46.125 C 20.863 46.194,20.232 46.294,19.528 46.347 L 18.250 46.445 19.426 46.472 C 20.239 46.491,20.703 46.424,20.926 46.255 C 21.104 46.121,21.206 46.008,21.153 46.005 C 21.099 46.002,21.000 46.056,20.931 46.125 M266.627 47.618 C 266.834 47.658,267.134 47.656,267.294 47.615 C 267.453 47.573,267.283 47.540,266.917 47.542 C 266.550 47.544,266.420 47.578,266.627 47.618 M269.625 47.618 C 269.831 47.657,270.169 47.657,270.375 47.618 C 270.581 47.578,270.412 47.545,270.000 47.545 C 269.587 47.545,269.419 47.578,269.625 47.618 M272.792 47.618 C 272.998 47.657,273.335 47.657,273.542 47.618 C 273.748 47.578,273.579 47.545,273.167 47.545 C 272.754 47.545,272.585 47.578,272.792 47.618 M276.958 47.618 C 277.165 47.657,277.502 47.657,277.708 47.618 C 277.915 47.578,277.746 47.545,277.333 47.545 C 276.921 47.545,276.752 47.578,276.958 47.618 M279.125 47.618 C 279.331 47.657,279.669 47.657,279.875 47.618 C 280.081 47.578,279.912 47.545,279.500 47.545 C 279.087 47.545,278.919 47.578,279.125 47.618 M281.211 47.620 C 281.464 47.658,281.839 47.657,282.044 47.617 C 282.249 47.578,282.042 47.546,281.583 47.548 C 281.125 47.549,280.957 47.581,281.211 47.620 M283.292 47.618 C 283.498 47.657,283.835 47.657,284.042 47.618 C 284.248 47.578,284.079 47.545,283.667 47.545 C 283.254 47.545,283.085 47.578,283.292 47.618 M285.377 47.620 C 285.631 47.658,286.006 47.657,286.211 47.617 C 286.416 47.578,286.208 47.546,285.750 47.548 C 285.292 47.549,285.124 47.581,285.377 47.620 M287.958 47.623 C 288.440 47.657,289.227 47.657,289.708 47.623 C 290.190 47.589,289.796 47.562,288.833 47.562 C 287.871 47.562,287.477 47.589,287.958 47.623 M394.054 48.253 C 393.855 48.481,393.748 48.667,393.816 48.667 C 393.884 48.667,394.103 48.479,394.302 48.250 C 394.501 48.021,394.609 47.835,394.541 47.836 C 394.472 47.838,394.254 48.026,394.054 48.253 M77.375 48.615 C 77.535 48.657,77.798 48.657,77.958 48.615 C 78.119 48.573,77.987 48.539,77.667 48.539 C 77.346 48.539,77.215 48.573,77.375 48.615 M190.042 48.791 C 191.485 48.819,193.848 48.819,195.292 48.791 C 196.735 48.764,195.554 48.741,192.667 48.741 C 189.779 48.741,188.598 48.764,190.042 48.791 M205.390 49.206 C 205.692 49.312,205.991 49.314,206.218 49.212 C 206.504 49.085,206.410 49.053,205.745 49.048 C 204.995 49.042,204.961 49.057,205.390 49.206 M208.417 49.166 C 208.733 49.302,210.466 49.400,210.319 49.273 C 210.281 49.240,209.762 49.170,209.167 49.117 C 208.496 49.058,208.210 49.077,208.417 49.166 M361.294 49.951 C 361.501 49.991,361.801 49.990,361.960 49.948 C 362.120 49.906,361.950 49.874,361.583 49.875 C 361.217 49.877,361.086 49.911,361.294 49.951 " stroke="none" fill="#2c4c64" fill-rule="evenodd"></path></g></svg>