<svg id="svg" version="1.1" xmlns="http://www.w3.org/2000/svg" xmlns:xlink="http://www.w3.org/1999/xlink" width="400" height="343.6031331592689" viewBox="0, 0, 400,343.6031331592689"><g id="svgg"><path id="path0" d="M191.753 0.344 C 191.753 0.553,190.203 0.687,187.790 0.687 C 184.585 0.687,183.789 0.786,183.629 1.203 C 183.492 1.561,182.932 1.718,181.792 1.718 C 180.754 1.718,179.996 1.907,179.725 2.234 C 179.433 2.585,178.652 2.749,177.267 2.749 C 175.779 2.749,175.183 2.887,175.038 3.265 C 174.738 4.048,77.970 4.048,77.320 3.265 C 77.023 2.907,76.234 2.749,74.742 2.749 C 73.251 2.749,72.462 2.591,72.165 2.234 C 71.822 1.821,70.787 1.718,66.957 1.718 C 63.026 1.718,62.143 1.627,61.980 1.203 C 61.679 0.420,4.811 0.420,4.811 1.203 C 4.811 1.486,4.579 1.718,4.296 1.718 C 3.546 1.718,3.546 6.461,4.296 6.749 C 5.075 7.048,5.075 36.690,4.296 36.989 C 3.903 37.140,3.780 37.782,3.780 39.691 C 3.780 41.599,3.658 42.242,3.265 42.392 C 2.862 42.547,2.749 43.234,2.749 45.533 C 2.749 47.831,2.636 48.518,2.234 48.673 C 1.821 48.831,1.718 49.585,1.718 52.442 C 1.718 55.388,1.628 56.014,1.203 56.014 C 0.752 56.014,0.687 58.020,0.687 72.004 C 0.687 85.900,0.755 88.020,1.203 88.192 C 1.636 88.358,1.718 89.447,1.718 95.054 C 1.718 100.749,1.793 101.718,2.234 101.718 C 2.652 101.718,2.749 102.273,2.749 104.650 C 2.749 106.939,2.862 107.625,3.265 107.780 C 3.677 107.938,3.780 108.687,3.780 111.512 C 3.780 114.337,3.884 115.086,4.296 115.245 C 4.743 115.416,4.811 117.379,4.811 130.021 C 4.811 142.663,4.743 144.626,4.296 144.798 C 3.516 145.097,3.516 176.553,4.296 176.852 C 4.700 177.007,4.811 177.701,4.811 180.063 C 4.811 182.323,4.940 183.184,5.326 183.505 C 5.764 183.868,5.842 185.528,5.842 194.519 C 5.842 203.471,5.922 205.185,6.357 205.621 C 6.782 206.045,6.873 207.373,6.873 213.140 C 6.873 218.766,6.972 220.275,7.377 220.811 C 8.134 221.812,8.145 234.708,7.388 234.708 C 7.001 234.708,6.873 235.123,6.873 236.384 C 6.873 237.455,6.687 238.215,6.357 238.488 C 5.984 238.797,5.842 239.617,5.842 241.451 C 5.842 243.475,5.738 243.986,5.326 243.986 C 4.881 243.986,4.811 245.208,4.811 252.921 C 4.811 260.634,4.741 261.856,4.296 261.856 C 3.860 261.856,3.780 262.653,3.780 266.974 C 3.780 271.206,3.869 272.126,4.296 272.289 C 4.711 272.449,4.811 273.226,4.811 276.289 C 4.811 279.351,4.911 280.129,5.326 280.288 C 5.741 280.447,5.842 281.219,5.842 284.229 C 5.842 287.327,5.753 287.973,5.326 287.973 C 4.906 287.973,4.811 288.545,4.811 291.065 C 4.811 293.585,4.716 294.158,4.296 294.158 C 3.945 294.158,3.777 294.516,3.769 295.275 C 3.763 295.889,3.531 296.692,3.254 297.059 C 2.489 298.070,2.499 326.856,3.265 327.491 C 3.687 327.842,3.780 329.002,3.780 333.891 C 3.780 338.970,3.857 339.863,4.296 339.863 C 4.579 339.863,4.811 340.095,4.811 340.378 C 4.811 340.790,5.326 340.893,7.388 340.893 C 9.450 340.893,9.966 340.790,9.966 340.378 C 9.966 339.940,10.844 339.863,15.808 339.863 C 20.771 339.863,21.649 339.940,21.649 340.378 C 21.649 340.807,22.333 340.893,25.736 340.893 C 29.052 340.893,29.861 340.991,30.021 341.409 C 30.186 341.838,31.151 341.924,35.753 341.924 C 40.213 341.924,41.386 342.024,41.802 342.440 C 42.242 342.880,44.224 342.955,55.351 342.955 C 63.811 342.955,68.385 343.076,68.385 343.299 C 68.385 343.527,98.339 343.643,157.560 343.643 C 216.781 343.643,246.735 343.527,246.735 343.299 C 246.735 343.080,249.585 342.955,254.597 342.955 C 261.166 342.955,262.529 342.871,262.887 342.440 C 263.533 341.661,293.127 341.661,293.127 342.440 C 293.127 342.865,293.757 342.955,296.735 342.955 C 298.912 342.955,300.344 343.092,300.344 343.299 C 300.344 343.526,315.808 343.643,346.048 343.643 C 376.289 343.643,391.753 343.526,391.753 343.299 C 391.753 343.110,392.294 342.955,392.955 342.955 C 393.795 342.955,394.158 342.800,394.158 342.440 C 394.158 342.039,394.616 341.924,396.220 341.924 C 397.824 341.924,398.282 341.810,398.282 341.409 C 398.282 341.125,398.514 340.893,398.797 340.893 C 399.221 340.893,399.313 340.283,399.313 337.457 C 399.313 335.395,399.450 334.021,399.656 334.021 C 399.884 334.021,400.000 317.068,400.000 283.849 C 400.000 250.630,399.884 233.677,399.656 233.677 C 399.440 233.677,399.313 231.382,399.313 227.481 C 399.313 222.290,399.229 221.252,398.797 221.086 C 398.344 220.912,398.282 216.742,398.282 186.426 C 398.282 156.110,398.344 151.940,398.797 151.766 C 399.229 151.600,399.313 150.562,399.313 145.372 C 399.313 141.470,399.440 139.175,399.656 139.175 C 399.881 139.175,400.000 132.360,400.000 119.416 C 400.000 106.472,399.881 99.656,399.656 99.656 C 399.466 99.656,399.313 98.748,399.313 97.619 C 399.313 96.266,399.140 95.409,398.797 95.066 C 398.390 94.659,398.282 93.579,398.282 89.929 C 398.282 86.240,398.178 85.221,397.766 84.880 C 397.325 84.513,397.251 82.591,397.251 71.478 C 397.251 60.364,397.325 58.442,397.766 58.076 C 398.200 57.716,398.282 56.260,398.282 48.927 C 398.282 41.404,398.353 40.206,398.797 40.206 C 399.227 40.206,399.313 39.519,399.313 36.082 C 399.313 33.562,399.446 31.959,399.656 31.959 C 399.880 31.959,400.000 26.690,400.000 16.838 C 400.000 6.987,399.880 1.718,399.656 1.718 C 399.467 1.718,399.313 1.486,399.313 1.203 C 399.313 0.916,399.007 0.687,398.625 0.687 C 398.247 0.687,397.938 0.533,397.938 0.344 C 397.938 0.155,397.706 0.000,397.423 0.000 C 397.139 0.000,396.907 0.155,396.907 0.344 C 396.907 0.569,388.656 0.687,372.841 0.687 C 351.767 0.687,348.751 0.751,348.578 1.203 C 348.406 1.649,346.487 1.718,334.198 1.718 C 322.010 1.718,319.955 1.791,319.588 2.234 C 318.938 3.016,242.788 3.016,242.487 2.234 C 242.320 1.796,241.092 1.718,234.364 1.718 C 227.637 1.718,226.409 1.640,226.241 1.203 C 226.085 0.795,225.368 0.687,222.815 0.687 C 220.893 0.687,219.588 0.548,219.588 0.344 C 219.588 0.120,214.719 0.000,205.670 0.000 C 196.621 0.000,191.753 0.120,191.753 0.344 M217.334 7.399 C 217.802 7.753,218.894 7.904,220.991 7.904 C 223.332 7.904,224.024 8.016,224.179 8.419 C 224.346 8.855,225.500 8.935,231.629 8.935 C 237.617 8.935,238.971 9.025,239.396 9.450 C 240.178 10.232,322.021 10.232,322.803 9.450 C 323.244 9.009,325.319 8.935,337.195 8.935 C 348.864 8.935,351.178 8.854,351.738 8.430 C 352.307 8.000,355.408 7.924,372.766 7.915 L 393.127 7.904 393.116 18.127 C 393.107 26.572,393.018 28.467,392.601 29.018 C 392.234 29.502,392.096 30.636,392.096 33.158 C 392.096 35.480,391.954 36.775,391.667 37.061 C 391.350 37.377,391.209 39.891,391.130 46.599 C 391.042 54.137,390.938 55.740,390.529 55.898 C 389.799 56.178,389.786 87.339,390.516 87.944 C 390.870 88.238,391.029 89.512,391.117 92.780 C 391.197 95.727,391.381 97.361,391.667 97.646 C 391.918 97.897,392.096 98.958,392.096 100.198 C 392.096 101.666,392.255 102.453,392.612 102.749 C 393.017 103.085,393.127 104.047,393.127 107.234 C 393.127 110.382,393.243 111.407,393.643 111.807 C 394.337 112.501,394.417 125.973,393.729 126.202 C 393.423 126.304,393.269 127.580,393.195 130.612 C 393.128 133.411,392.920 135.253,392.594 135.963 C 392.220 136.776,392.096 138.531,392.096 143.024 C 392.096 147.349,391.977 149.122,391.667 149.433 C 390.968 150.132,390.865 222.660,391.561 224.162 C 391.930 224.959,392.095 226.844,392.168 231.072 C 392.242 235.344,392.382 236.923,392.698 237.028 C 393.394 237.259,393.298 329.814,392.601 330.736 C 392.309 331.122,392.096 332.148,392.096 333.172 C 392.096 335.114,391.439 335.739,389.397 335.739 C 388.875 335.739,388.147 335.966,387.780 336.243 C 387.226 336.663,385.198 336.750,375.753 336.759 C 366.308 336.768,364.280 336.855,363.725 337.274 C 362.707 338.044,309.140 338.055,308.370 337.285 C 308.036 336.951,307.167 336.766,305.903 336.759 C 304.735 336.752,303.684 336.545,303.285 336.243 C 302.811 335.885,301.704 335.739,299.458 335.739 C 297.324 335.739,295.979 335.572,295.314 335.225 C 294.088 334.586,264.935 334.493,262.027 335.119 C 261.082 335.322,256.456 335.584,251.746 335.700 C 245.355 335.857,243.147 336.020,243.041 336.340 C 242.831 336.972,72.290 336.972,72.079 336.340 C 71.969 336.008,68.856 335.888,58.412 335.813 C 49.621 335.750,44.735 335.589,44.453 335.355 C 44.214 335.157,41.614 334.907,38.675 334.799 C 34.805 334.658,33.225 334.476,32.947 334.141 C 32.669 333.806,31.565 333.677,28.971 333.677 C 26.238 333.677,25.257 333.554,24.865 333.162 C 24.442 332.739,23.150 332.646,17.673 332.646 L 10.997 332.646 10.997 329.103 C 10.997 326.521,10.860 325.380,10.492 324.894 C 9.728 323.883,9.717 300.512,10.481 300.219 C 10.777 300.106,10.997 299.593,10.997 299.017 C 10.997 298.440,11.216 297.927,11.512 297.814 C 11.914 297.660,12.027 296.977,12.027 294.721 C 12.027 292.465,12.141 291.782,12.543 291.628 C 13.312 291.333,13.312 277.270,12.543 276.632 C 12.146 276.303,12.027 275.393,12.027 272.675 C 12.027 269.855,11.924 269.106,11.512 268.948 C 11.159 268.812,10.997 268.260,10.997 267.193 C 10.997 266.038,11.130 265.636,11.512 265.636 C 11.957 265.636,12.027 264.399,12.027 256.571 C 12.027 248.933,12.109 247.440,12.543 247.079 C 12.916 246.770,13.058 245.950,13.058 244.116 C 13.058 242.092,13.162 241.581,13.574 241.581 C 13.974 241.581,14.089 241.127,14.089 239.556 C 14.089 238.073,14.227 237.478,14.605 237.333 C 15.379 237.036,15.379 219.322,14.605 219.025 C 14.168 218.857,14.089 217.659,14.089 211.174 C 14.089 204.790,14.004 203.450,13.574 203.093 C 13.135 202.729,13.058 201.010,13.058 191.539 C 13.058 181.878,12.991 180.412,12.543 180.412 C 12.117 180.412,12.027 179.781,12.027 176.793 C 12.027 173.893,11.925 173.135,11.512 172.977 C 10.748 172.683,10.759 149.312,11.523 148.302 C 12.279 147.303,12.279 112.835,11.523 111.835 C 11.192 111.397,11.015 110.325,11.007 108.714 C 10.999 106.856,10.871 106.211,10.481 106.061 C 10.071 105.904,9.966 105.171,9.966 102.482 C 9.966 100.041,9.825 98.915,9.461 98.433 C 9.064 97.909,8.954 96.514,8.946 91.904 C 8.937 87.295,8.827 85.899,8.430 85.375 C 7.667 84.366,7.657 59.304,8.419 58.542 C 8.795 58.166,8.935 57.250,8.935 55.159 C 8.935 53.170,9.066 52.247,9.364 52.148 C 9.654 52.051,9.833 50.973,9.915 48.830 C 10.003 46.515,10.166 45.606,10.516 45.472 C 10.867 45.337,10.997 44.612,10.997 42.789 C 10.997 40.987,11.140 40.171,11.512 39.863 C 11.957 39.494,12.027 37.264,12.027 23.669 L 12.027 7.904 35.181 7.904 C 55.343 7.904,58.390 7.970,58.763 8.419 C 59.104 8.831,60.123 8.935,63.812 8.935 C 67.462 8.935,68.542 9.043,68.949 9.450 C 69.293 9.794,70.152 9.966,71.527 9.966 C 72.901 9.966,73.760 10.137,74.104 10.481 C 74.887 11.264,177.013 11.264,177.663 10.481 C 177.968 10.114,178.774 9.966,180.465 9.966 C 182.259 9.966,182.888 9.840,183.037 9.450 C 183.179 9.081,183.756 8.935,185.071 8.935 C 186.292 8.935,187.000 8.772,187.182 8.450 C 187.387 8.090,188.458 7.936,191.381 7.849 C 194.127 7.767,195.347 7.603,195.447 7.302 C 195.675 6.618,216.422 6.710,217.334 7.399 " stroke="none" fill="#040c0c" fill-rule="evenodd"></path><path id="path1" d="" stroke="none" fill="#080c0c" fill-rule="evenodd"></path><path id="path2" d="" stroke="none" fill="#080c0c" fill-rule="evenodd"></path><path id="path3" d="" stroke="none" fill="#080c0c" fill-rule="evenodd"></path><path id="path4" d="" stroke="none" fill="#080c0c" fill-rule="evenodd"></path></g></svg>