<?xml version="1.0" standalone="no"?>
<!DOCTYPE svg PUBLIC "-//W3C//DTD SVG 20010904//EN"
 "http://www.w3.org/TR/2001/REC-SVG-20010904/DTD/svg10.dtd">
<svg version="1.0" xmlns="http://www.w3.org/2000/svg"
 width="397.000000pt" height="150.000000pt" viewBox="0 0 397.000000 150.000000"
 preserveAspectRatio="xMidYMid meet">

<g transform="translate(0.000000,150.000000) scale(0.100000,-0.100000)"
fill="#000000" stroke="none">
<path d="M720 1250 c0 -13 -7 -20 -20 -20 -15 0 -20 -7 -20 -25 0 -20 -5 -25
-25 -25 -23 0 -25 -4 -25 -45 0 -41 -2 -45 -25 -45 -23 0 -25 -3 -25 -50 l0
-50 -70 0 c-68 0 -70 1 -70 25 0 20 -5 25 -25 25 -20 0 -25 -5 -25 -25 0 -20
-5 -25 -25 -25 -18 0 -25 -5 -25 -20 0 -15 -7 -20 -25 -20 -20 0 -25 -5 -25
-25 0 -20 5 -25 25 -25 20 0 25 -5 25 -25 0 -20 5 -25 25 -25 20 0 25 -5 25
-25 0 -20 5 -25 25 -25 20 0 25 5 25 25 0 24 2 25 70 25 l70 0 0 -50 c0 -47 2
-50 25 -50 23 0 25 -4 25 -45 0 -41 2 -45 25 -45 l25 0 0 -140 0 -140 -25 0
c-20 0 -25 -5 -25 -25 0 -20 -5 -25 -25 -25 -20 0 -25 -5 -25 -25 0 -25 0 -25
95 -25 95 0 95 0 95 25 0 20 5 25 25 25 20 0 25 5 25 25 0 20 5 25 25 25 18 0
25 5 25 20 0 13 7 20 20 20 15 0 20 7 20 25 0 20 5 25 25 25 20 0 25 5 25 25
0 20 5 25 25 25 24 0 25 2 25 70 0 63 2 70 20 70 13 0 20 7 20 20 0 15 7 20
25 20 23 0 25 3 25 50 0 47 2 50 25 50 20 0 25 5 25 25 0 24 2 25 75 25 73 0
75 -1 75 -25 0 -18 5 -25 20 -25 15 0 20 7 20 25 0 20 5 25 25 25 20 0 25 5
25 25 0 20 5 25 25 25 20 0 25 5 25 25 0 20 -5 25 -25 25 -18 0 -25 5 -25 20
0 15 -7 20 -25 20 -20 0 -25 5 -25 25 0 18 -5 25 -20 25 -15 0 -20 -7 -20 -25
0 -23 -3 -25 -50 -25 l-50 0 0 50 c0 47 -2 50 -25 50 -23 0 -25 4 -25 45 0 41
-2 45 -25 45 -20 0 -25 5 -25 25 0 20 -5 25 -25 25 -18 0 -25 5 -25 20 0 19
-7 20 -165 20 -158 0 -165 -1 -165 -20z m330 -45 c0 -20 5 -25 25 -25 23 0 25
-4 25 -45 0 -41 2 -45 25 -45 25 0 25 0 25 -95 0 -95 0 -95 -25 -95 -23 0 -25
-3 -25 -50 0 -47 -2 -50 -25 -50 -23 0 -25 -3 -25 -50 0 -43 -3 -50 -20 -50
-13 0 -20 -7 -20 -20 0 -15 -7 -20 -25 -20 -24 0 -25 -2 -25 -70 0 -68 -1 -70
-25 -70 -20 0 -25 -5 -25 -25 0 -18 -5 -25 -20 -25 -15 0 -20 -7 -20 -25 0
-20 -5 -25 -25 -25 -18 0 -25 -5 -25 -20 0 -15 -7 -20 -25 -20 -20 0 -25 -5
-25 -25 0 -23 -4 -25 -45 -25 -41 0 -45 2 -45 25 0 18 5 25 20 25 19 0 20 7
20 140 0 133 -1 140 -20 140 -17 0 -20 7 -20 45 0 41 -2 45 -25 45 -23 0 -25
3 -25 50 0 47 -2 50 -25 50 -20 0 -25 5 -25 25 0 24 -2 25 -70 25 -68 0 -70
-1 -70 -25 0 -20 -5 -25 -25 -25 -20 0 -25 5 -25 25 0 20 -5 25 -25 25 -20 0
-25 5 -25 25 0 20 5 25 25 25 18 0 25 5 25 20 0 15 7 20 25 20 18 0 25 -5 25
-20 0 -19 7 -20 95 -20 l95 0 0 70 c0 68 1 70 25 70 23 0 25 4 25 45 0 38 3
45 20 45 15 0 20 7 20 25 l0 25 165 0 165 0 0 -25z m290 -235 c0 -15 7 -20 25
-20 20 0 25 -5 25 -25 0 -20 -5 -25 -25 -25 -20 0 -25 -5 -25 -25 0 -18 -5
-25 -20 -25 -15 0 -20 7 -20 25 0 23 -3 25 -50 25 -47 0 -50 2 -50 25 0 23 3
25 50 25 43 0 50 3 50 20 0 13 7 20 20 20 13 0 20 -7 20 -20z"/>
<path d="M770 1155 c0 -20 -5 -25 -25 -25 -23 0 -25 -4 -25 -45 0 -41 2 -45
25 -45 20 0 25 -5 25 -25 0 -23 3 -25 50 -25 47 0 50 2 50 25 0 18 5 25 20 25
15 0 20 -7 20 -25 0 -23 3 -25 50 -25 47 0 50 2 50 25 0 18 5 25 20 25 17 0
20 7 20 45 0 38 -3 45 -20 45 -15 0 -20 7 -20 25 0 23 -3 25 -50 25 -47 0 -50
-2 -50 -25 0 -18 -5 -25 -20 -25 -15 0 -20 7 -20 25 0 23 -3 25 -50 25 -47 0
-50 -2 -50 -25z m50 -70 c0 -41 -2 -45 -25 -45 -23 0 -25 4 -25 45 0 41 2 45
25 45 23 0 25 -4 25 -45z m140 0 c0 -41 -2 -45 -25 -45 -23 0 -25 4 -25 45 0
41 2 45 25 45 23 0 25 -4 25 -45z"/>
<path d="M820 900 l0 -50 45 0 45 0 0 50 0 50 -45 0 -45 0 0 -50z"/>
<path d="M1630 1250 c0 -13 7 -20 20 -20 13 0 20 7 20 20 0 13 -7 20 -20 20
-13 0 -20 -7 -20 -20z"/>
<path d="M1770 1225 c0 -41 -2 -45 -25 -45 -20 0 -25 -5 -25 -25 0 -20 5 -25
25 -25 24 0 25 -2 25 -70 0 -68 1 -70 25 -70 18 0 25 -5 25 -20 0 -17 7 -20
45 -20 38 0 45 3 45 20 0 17 -7 20 -45 20 l-45 0 0 70 0 70 45 0 c41 0 45 2
45 25 0 23 -4 25 -45 25 l-45 0 0 45 c0 41 -2 45 -25 45 -23 0 -25 -4 -25 -45z"/>
<path d="M2150 1250 c0 -15 7 -20 25 -20 18 0 25 5 25 20 0 15 -7 20 -25 20
-18 0 -25 -5 -25 -20z"/>
<path d="M1630 1065 c0 -108 1 -115 20 -115 19 0 20 7 20 115 0 108 -1 115
-20 115 -19 0 -20 -7 -20 -115z"/>
<path d="M2150 1065 l0 -115 25 0 25 0 0 115 0 115 -25 0 -25 0 0 -115z"/>
<path d="M2340 1155 c0 -20 -5 -25 -25 -25 -18 0 -25 -5 -25 -20 0 -15 7 -20
25 -20 20 0 25 -5 25 -25 0 -23 4 -25 45 -25 41 0 45 -2 45 -25 0 -24 -2 -25
-70 -25 -63 0 -70 -2 -70 -20 0 -18 7 -20 70 -20 63 0 70 2 70 20 0 15 7 20
25 20 20 0 25 5 25 25 0 20 -5 25 -25 25 -20 0 -25 5 -25 25 0 23 -4 25 -45
25 -38 0 -45 3 -45 20 0 18 7 20 70 20 68 0 70 1 70 25 0 24 -2 25 -70 25 -68
0 -70 -1 -70 -25z"/>
<path d="M2820 1155 c0 -24 2 -25 70 -25 63 0 70 -2 70 -20 0 -18 -7 -20 -70
-20 -68 0 -70 -1 -70 -25 0 -20 -5 -25 -25 -25 -20 0 -25 -5 -25 -25 0 -20 5
-25 25 -25 18 0 25 -5 25 -20 0 -19 7 -20 90 -20 l90 0 0 90 c0 83 -1 90 -20
90 -15 0 -20 7 -20 25 0 24 -2 25 -70 25 -68 0 -70 -1 -70 -25z m140 -140 c0
-24 -2 -25 -70 -25 -68 0 -70 1 -70 25 0 24 2 25 70 25 68 0 70 -1 70 -25z"/>
<path d="M2430 610 c0 -43 -3 -50 -20 -50 -13 0 -20 -7 -20 -20 0 -13 7 -20
20 -20 18 0 20 -7 20 -70 0 -68 1 -70 25 -70 20 0 25 -5 25 -25 0 -23 3 -25
50 -25 47 0 50 2 50 25 0 23 -3 25 -50 25 l-50 0 0 70 0 70 50 0 c43 0 50 3
50 20 0 17 -7 20 -50 20 l-50 0 0 50 c0 47 -2 50 -25 50 -23 0 -25 -3 -25 -50z"/>
<path d="M1340 445 l0 -115 25 0 c25 0 25 0 25 95 l0 95 70 0 70 0 0 -95 c0
-95 0 -95 25 -95 25 0 25 0 25 95 l0 95 70 0 70 0 0 -95 c0 -95 0 -95 25 -95
25 0 25 0 25 95 0 95 0 95 -25 95 -18 0 -25 5 -25 20 0 18 -7 20 -70 20 -63 0
-70 -2 -70 -20 0 -15 -7 -20 -25 -20 -18 0 -25 5 -25 20 0 19 -7 20 -95 20
l-95 0 0 -115z"/>
<path d="M1870 490 c0 -63 2 -70 20 -70 13 0 20 -7 20 -20 0 -15 7 -20 25 -20
20 0 25 -5 25 -25 0 -20 -5 -25 -25 -25 -23 0 -25 -3 -25 -50 0 -47 2 -50 25
-50 23 0 25 3 25 50 0 47 2 50 25 50 23 0 25 4 25 45 0 41 2 45 25 45 24 0 25
2 25 70 0 68 -1 70 -25 70 -24 0 -25 -2 -25 -70 l0 -70 -50 0 -50 0 0 70 c0
63 -2 70 -20 70 -18 0 -20 -7 -20 -70z"/>
<path d="M2200 540 c0 -15 -7 -20 -25 -20 -20 0 -25 -5 -25 -25 0 -20 5 -25
25 -25 20 0 25 -5 25 -25 0 -23 4 -25 45 -25 38 0 45 -3 45 -20 0 -18 -7 -20
-70 -20 -68 0 -70 -1 -70 -25 0 -24 2 -25 70 -25 68 0 70 1 70 25 0 20 5 25
25 25 18 0 25 5 25 20 0 15 -7 20 -25 20 -20 0 -25 5 -25 25 0 23 -4 25 -45
25 -41 0 -45 2 -45 25 0 24 2 25 70 25 63 0 70 2 70 20 0 18 -7 20 -70 20 -63
0 -70 -2 -70 -20z"/>
<path d="M2680 540 c0 -15 -7 -20 -25 -20 -24 0 -25 -2 -25 -70 0 -68 1 -70
25 -70 20 0 25 -5 25 -25 0 -25 1 -25 90 -25 89 0 90 0 90 25 0 25 -1 25 -90
25 -83 0 -90 1 -90 20 0 19 7 20 90 20 l90 0 0 50 c0 43 -3 50 -20 50 -13 0
-20 7 -20 20 0 18 -7 20 -70 20 -63 0 -70 -2 -70 -20z m140 -45 c0 -24 -2 -25
-70 -25 -68 0 -70 1 -70 25 0 24 2 25 70 25 68 0 70 -1 70 -25z"/>
<path d="M2960 445 c0 -108 1 -115 20 -115 18 0 20 7 20 70 0 68 1 70 25 70
20 0 25 5 25 25 0 20 5 25 25 25 18 0 25 5 25 20 0 15 -7 20 -25 20 -18 0 -25
-5 -25 -20 0 -15 -7 -20 -25 -20 -18 0 -25 5 -25 20 0 13 -7 20 -20 20 -19 0
-20 -7 -20 -115z"/>
<path d="M3150 490 c0 -63 2 -70 20 -70 13 0 20 -7 20 -20 0 -15 7 -20 25 -20
20 0 25 -5 25 -25 0 -20 -5 -25 -25 -25 -23 0 -25 -3 -25 -50 0 -47 2 -50 25
-50 23 0 25 3 25 50 0 47 2 50 25 50 23 0 25 4 25 45 0 41 2 45 25 45 24 0 25
2 25 70 0 68 -1 70 -25 70 -24 0 -25 -2 -25 -70 l0 -70 -50 0 -50 0 0 70 c0
63 -2 70 -20 70 -18 0 -20 -7 -20 -70z"/>
</g>
</svg>
